<?xml version="1.0" encoding="UTF-8"?>
<svg version="1.1" xmlns="http://www.w3.org/2000/svg" width="512" height="512">
<path d="M0 0 C0.72715023 -0.00465992 1.45430046 -0.00931984 2.20348555 -0.01412097 C4.64119245 -0.02607623 7.07834255 -0.0166737 9.51605415 -0.00736332 C11.28094895 -0.01153601 13.04584107 -0.01701317 14.81072819 -0.02368313 C19.66165412 -0.03816501 24.51241054 -0.03388444 29.36334586 -0.02651632 C34.59454246 -0.02179372 39.82570191 -0.03428647 45.05688667 -0.04453373 C55.30579244 -0.06174509 65.55463697 -0.06255687 75.80355345 -0.05732083 C84.13286833 -0.05328212 92.46216509 -0.05471912 100.79147911 -0.06006908 C102.56857694 -0.06119172 102.56857694 -0.06119172 104.38157574 -0.06233703 C106.78823669 -0.06386848 109.19489764 -0.06540683 111.60155858 -0.066952 C134.17986168 -0.08068558 156.75813015 -0.07523339 179.33643247 -0.06376678 C199.99769951 -0.05383423 220.65887699 -0.06677396 241.32013021 -0.09070098 C262.52844086 -0.11507671 283.73670977 -0.12470356 304.94503415 -0.11804825 C316.85455626 -0.11455255 328.7640095 -0.11681124 340.67352104 -0.13429928 C350.81224184 -0.14900219 360.95084526 -0.14968173 371.08956371 -0.13222837 C376.26320079 -0.12370014 381.43662801 -0.12161329 386.61025429 -0.13687992 C391.34642031 -0.15068272 396.08219583 -0.14602068 400.81833901 -0.12664068 C402.53161386 -0.1228668 404.24491967 -0.12584249 405.95816706 -0.13625234 C423.12377437 -0.23313469 423.12377437 -0.23313469 430.80685616 6.23969173 C431.33666084 6.86359798 431.86646553 7.48750423 432.41232491 8.13031673 C432.95502022 8.74391048 433.49771553 9.35750423 434.05685616 9.98969173 C438.8526254 17.42009876 439.0319289 24.32319241 438.98750496 32.92996883 C438.99558327 34.81011431 438.99558327 34.81011431 439.00382477 36.72824252 C439.01823782 40.19122004 439.01404775 43.65395872 439.00665796 47.11694908 C439.00191825 50.85802518 439.01444325 54.59905021 439.02467537 58.34010983 C439.04185327 65.66303432 439.04270545 72.98587296 439.03746247 80.30881236 C439.03341749 86.26249227 439.03486821 92.21614685 439.04021072 98.16982555 C439.04095915 99.01789031 439.04170757 99.86595506 439.04247867 100.73971874 C439.04401018 102.46268816 439.04554853 104.18565758 439.04709364 105.90862699 C439.06081514 122.05896345 439.05538355 138.20925144 439.04390842 154.35958679 C439.0339774 169.12515045 439.04691506 183.89058877 439.07084262 198.6561331 C439.09524282 213.82799419 439.10483916 228.99979692 439.09818989 244.17167723 C439.09469959 252.68528521 439.09691719 261.19879683 439.11444092 269.71238995 C439.12917446 276.96016058 439.12978338 284.20776699 439.11237001 291.45553444 C439.10386687 295.15101802 439.10169333 298.84620836 439.11702156 302.54167652 C439.13345586 306.55358698 439.11870053 310.56479221 439.10103035 314.57669735 C439.11063536 315.7366331 439.12024036 316.89656886 439.13013643 318.09165418 C439.05556831 326.33067363 437.7385997 333.49964971 432.45138741 340.03656673 C431.71662178 340.64500423 430.98185616 341.25344173 430.22482491 341.88031673 C429.49521553 342.50937923 428.76560616 343.13844173 428.01388741 343.78656673 C421.81995698 347.87576352 415.67208727 347.64814438 408.51388741 347.57562923 C406.9285067 347.57138439 406.9285067 347.57138439 405.3110981 347.56705379 C401.9488899 347.55589523 398.58695205 347.53079832 395.22482491 347.50531673 C392.93967251 347.49528136 390.65451593 347.48615648 388.36935616 347.47797298 C382.7794208 347.45597005 377.18964217 347.42253546 371.59982491 347.38031673 C371.30777168 348.30771664 371.01571846 349.23511654 370.71481514 350.19061947 C369.47557498 353.73576349 367.79800945 356.36059043 365.66232491 359.44281673 C363.18975838 363.03381522 360.82556382 366.6318077 358.59982491 370.38031673 C362.69990148 374.67853828 366.82587813 378.94949184 370.97775459 383.19769955 C372.38552629 384.64563777 373.78602663 386.1006835 375.17892647 387.56293392 C377.1858019 389.6671471 379.21768379 391.74417496 381.25607491 393.81781673 C381.870998 394.47403011 382.4859211 395.13024349 383.11947823 395.80634212 C386.44150665 399.13171599 387.69555007 400.34373532 392.55880928 400.54047298 C393.2300977 400.48623606 393.90138613 400.43199913 394.59301662 400.37611866 C401.05813702 400.38964315 406.320978 405.63292657 410.63876534 409.8882513 C411.35334908 410.61250301 412.06793282 411.33675472 412.80417061 412.08295345 C413.96912308 413.23980145 413.96912308 413.23980145 415.15760994 414.4200201 C417.70692921 416.95689229 420.24152793 419.50791468 422.77560616 422.06000423 C424.54994785 423.83419087 426.32495714 425.6077101 428.1006031 427.38059139 C431.81286069 431.09146686 435.51830917 434.80900512 439.21823311 438.5321722 C443.48742498 442.82799824 447.76894331 447.11122692 452.05733234 451.38788307 C456.19594555 455.51569593 460.32594525 459.65202388 464.45214081 463.79224682 C466.20315329 465.54777111 467.95625472 467.3012144 469.711483 469.05252361 C472.16257851 471.50070586 474.60373948 473.95838137 477.04245186 476.41889095 C477.76715675 477.1390942 478.49186165 477.85929745 479.2385273 478.60132504 C484.29819192 483.73627055 488.02640615 488.29479211 488.03732491 495.81781673 C487.86119663 501.21908398 486.97378395 504.14123999 483.59982491 508.38031673 C478.63776046 512.32971497 474.70428955 512.83791127 468.44357491 512.91156673 C460.88757572 511.50000645 455.82597289 506.04367434 450.61667061 500.80121517 C449.46897697 499.66381641 449.46897697 499.66381641 448.29809761 498.5034399 C445.78289413 496.00646745 443.27886093 493.4986388 440.77560616 490.98969173 C439.02435902 489.24300795 437.27274099 487.49669595 435.52076912 485.7507391 C431.85513807 482.09403181 428.19522739 478.43171326 424.53903389 474.76557064 C419.86022623 470.07527138 415.16575048 465.40101699 410.46662807 460.73108196 C406.84699538 457.12982107 403.23674579 453.51926721 399.62914276 449.90595913 C397.90230634 448.17896963 396.17237391 446.45506997 394.4392662 444.73437405 C392.01470907 442.32474324 389.60331619 439.90264251 387.19479561 437.47699642 C386.48146568 436.77333447 385.76813576 436.06967251 385.03318977 435.34468746 C375.60995104 425.78106194 375.60995104 425.78106194 375.59520626 419.37308788 C375.67676983 418.36636343 375.67676983 418.36636343 375.75998116 417.33930111 C375.53252515 411.71669964 373.00231984 409.7520761 369.03732491 406.03656673 C368.03850288 405.05472408 368.03850288 405.05472408 367.01950264 404.05304623 C364.89770458 401.9758718 362.74977435 399.9282999 360.59982491 397.88031673 C359.15269424 396.47333019 357.70735922 395.06449426 356.26388741 393.65375423 C352.72964317 390.20750378 349.17170041 386.78753131 345.59982491 383.38031673 C343.86798811 384.48177553 342.13623344 385.58336346 340.40451241 386.68500423 C339.44013252 387.29843685 338.47575264 387.91186947 337.48214912 388.54389095 C335.63694712 389.71953126 333.79395517 390.89865203 331.95382881 392.08222103 C311.56354508 405.10028936 284.99111436 408.62616882 261.41232491 404.13031673 C259.13168448 403.58658789 256.85939048 403.00587666 254.59982491 402.38031673 C253.58146553 402.10187923 252.56310616 401.82344173 251.51388741 401.53656673 C238.41086919 397.54719636 227.18340643 390.9804452 216.59982491 382.38031673 C215.89470772 381.84019955 215.18959053 381.30008236 214.46310616 380.74359798 C210.08555296 377.21846894 206.54917055 373.11507607 203.03732491 368.75531673 C202.60218575 368.22398129 202.16704659 367.69264584 201.71872139 367.14520931 C198.64369205 363.20502359 196.27278743 359.03633755 193.9242878 354.62494564 C193.60309219 354.02334118 193.28189659 353.42173672 192.95096779 352.80190182 C192.1650879 351.3291937 191.38215585 349.85491318 190.59982491 348.38031673 C189.59375757 348.37977197 188.58769024 348.3792272 187.55113602 348.37866592 C163.05436907 348.36426093 138.55777962 348.32120454 114.06111526 348.24822617 C102.2146226 348.21359519 90.36824607 348.18822311 78.52169991 348.18476009 C68.19443833 348.18171759 57.86738369 348.16118836 47.54020202 348.11979216 C42.07362472 348.09848673 36.60734144 348.08584905 31.14072227 348.09416294 C25.9909089 348.10171844 20.84169052 348.08581892 15.69198608 348.05225658 C13.80628716 348.04404145 11.92052887 348.04425189 10.03483582 348.05371952 C-9.09335387 348.14021716 -9.09335387 348.14021716 -16.40017509 342.38031673 C-21.50902782 336.9221183 -24.64445064 331.53211277 -24.66023731 323.91759777 C-24.6673029 322.8263734 -24.67436849 321.73514903 -24.68164819 320.61085725 C-24.67923311 319.41758466 -24.67681803 318.22431208 -24.67432976 316.99487972 C-24.67956644 315.72288935 -24.68480312 314.45089899 -24.69019848 313.14036345 C-24.70437339 309.61172349 -24.70604187 306.08317162 -24.70560157 302.55450726 C-24.70725023 298.74796128 -24.72031767 294.94145156 -24.73179436 291.13492489 C-24.75463966 282.81256856 -24.76256444 274.49023774 -24.7676208 266.16785431 C-24.77087833 260.97042937 -24.77740115 255.77301184 -24.78462219 250.57559109 C-24.80418741 236.18263773 -24.82059211 221.78969126 -24.82349873 207.39672375 C-24.8236863 206.4757687 -24.82387387 205.55481365 -24.82406712 204.60595088 C-24.82443337 202.73898713 -24.82479707 200.87202338 -24.82515823 199.00505963 C-24.82534104 198.07830854 -24.82552385 197.15155744 -24.8257122 196.19672298 C-24.82589275 195.26883948 -24.8260733 194.34095597 -24.82625932 193.38495478 C-24.82980092 178.3501479 -24.85682271 163.31548426 -24.89421009 148.28072706 C-24.93229659 132.8411582 -24.95165623 117.40166041 -24.95195824 101.96204352 C-24.95254273 93.29468701 -24.96102922 84.62750138 -24.9899559 75.96018887 C-25.01447437 68.57982085 -25.02174959 61.19968602 -25.00670838 53.81928828 C-24.99954132 50.05502258 -25.00038745 46.29121731 -25.02311897 42.52700329 C-25.04754956 38.44222692 -25.03306777 34.35849716 -25.01490593 30.27368832 C-25.0281059 29.08933862 -25.04130587 27.90498892 -25.05490583 26.68474984 C-24.97428767 18.74692781 -23.4753643 12.7496657 -17.95750803 6.8335135 C-12.42194348 1.91502478 -7.33571131 0.0058362 0 0 Z " fill="#5D5360" transform="translate(24.400175094604492,-0.38031673431396484)"/>
<path d="M0 0 C0.72715023 -0.00465992 1.45430046 -0.00931984 2.20348555 -0.01412097 C4.64119245 -0.02607623 7.07834255 -0.0166737 9.51605415 -0.00736332 C11.28094895 -0.01153601 13.04584107 -0.01701317 14.81072819 -0.02368313 C19.66165412 -0.03816501 24.51241054 -0.03388444 29.36334586 -0.02651632 C34.59454246 -0.02179372 39.82570191 -0.03428647 45.05688667 -0.04453373 C55.30579244 -0.06174509 65.55463697 -0.06255687 75.80355345 -0.05732083 C84.13286833 -0.05328212 92.46216509 -0.05471912 100.79147911 -0.06006908 C102.56857694 -0.06119172 102.56857694 -0.06119172 104.38157574 -0.06233703 C106.78823669 -0.06386848 109.19489764 -0.06540683 111.60155858 -0.066952 C134.17986168 -0.08068558 156.75813015 -0.07523339 179.33643247 -0.06376678 C199.99769951 -0.05383423 220.65887699 -0.06677396 241.32013021 -0.09070098 C262.52844086 -0.11507671 283.73670977 -0.12470356 304.94503415 -0.11804825 C316.85455626 -0.11455255 328.7640095 -0.11681124 340.67352104 -0.13429928 C350.81224184 -0.14900219 360.95084526 -0.14968173 371.08956371 -0.13222837 C376.26320079 -0.12370014 381.43662801 -0.12161329 386.61025429 -0.13687992 C391.34642031 -0.15068272 396.08219583 -0.14602068 400.81833901 -0.12664068 C402.53161386 -0.1228668 404.24491967 -0.12584249 405.95816706 -0.13625234 C423.12377437 -0.23313469 423.12377437 -0.23313469 430.80685616 6.23969173 C431.33666084 6.86359798 431.86646553 7.48750423 432.41232491 8.13031673 C432.95502022 8.74391048 433.49771553 9.35750423 434.05685616 9.98969173 C438.8526254 17.42009876 439.0319289 24.32319241 438.98750496 32.92996883 C438.99558327 34.81011431 438.99558327 34.81011431 439.00382477 36.72824252 C439.01823782 40.19122004 439.01404775 43.65395872 439.00665796 47.11694908 C439.00191825 50.85802518 439.01444325 54.59905021 439.02467537 58.34010983 C439.04185327 65.66303432 439.04270545 72.98587296 439.03746247 80.30881236 C439.03341749 86.26249227 439.03486821 92.21614685 439.04021072 98.16982555 C439.04095915 99.01789031 439.04170757 99.86595506 439.04247867 100.73971874 C439.04401018 102.46268816 439.04554853 104.18565758 439.04709364 105.90862699 C439.06081514 122.05896345 439.05538355 138.20925144 439.04390842 154.35958679 C439.0339774 169.12515045 439.04691506 183.89058877 439.07084262 198.6561331 C439.09524282 213.82799419 439.10483916 228.99979692 439.09818989 244.17167723 C439.09469959 252.68528521 439.09691719 261.19879683 439.11444092 269.71238995 C439.12917446 276.96016058 439.12978338 284.20776699 439.11237001 291.45553444 C439.10386687 295.15101802 439.10169333 298.84620836 439.11702156 302.54167652 C439.13345586 306.55358698 439.11870053 310.56479221 439.10103035 314.57669735 C439.11063536 315.7366331 439.12024036 316.89656886 439.13013643 318.09165418 C439.05556831 326.33067363 437.7385997 333.49964971 432.45138741 340.03656673 C431.71662178 340.64500423 430.98185616 341.25344173 430.22482491 341.88031673 C429.49521553 342.50937923 428.76560616 343.13844173 428.01388741 343.78656673 C421.81995698 347.87576352 415.67208727 347.64814438 408.51388741 347.57562923 C406.9285067 347.57138439 406.9285067 347.57138439 405.3110981 347.56705379 C401.9488899 347.55589523 398.58695205 347.53079832 395.22482491 347.50531673 C392.93967251 347.49528136 390.65451593 347.48615648 388.36935616 347.47797298 C382.7794208 347.45597005 377.18964217 347.42253546 371.59982491 347.38031673 C371.30777168 348.30771664 371.01571846 349.23511654 370.71481514 350.19061947 C369.47557498 353.73576349 367.79800945 356.36059043 365.66232491 359.44281673 C363.18975838 363.03381522 360.82556382 366.6318077 358.59982491 370.38031673 C362.69990148 374.67853828 366.82587813 378.94949184 370.97775459 383.19769955 C372.38552629 384.64563777 373.78602663 386.1006835 375.17892647 387.56293392 C377.1858019 389.6671471 379.21768379 391.74417496 381.25607491 393.81781673 C381.870998 394.47403011 382.4859211 395.13024349 383.11947823 395.80634212 C386.44150665 399.13171599 387.69555007 400.34373532 392.55880928 400.54047298 C393.2300977 400.48623606 393.90138613 400.43199913 394.59301662 400.37611866 C401.05813702 400.38964315 406.320978 405.63292657 410.63876534 409.8882513 C411.35334908 410.61250301 412.06793282 411.33675472 412.80417061 412.08295345 C413.96912308 413.23980145 413.96912308 413.23980145 415.15760994 414.4200201 C417.70692921 416.95689229 420.24152793 419.50791468 422.77560616 422.06000423 C424.54994785 423.83419087 426.32495714 425.6077101 428.1006031 427.38059139 C431.81286069 431.09146686 435.51830917 434.80900512 439.21823311 438.5321722 C443.48742498 442.82799824 447.76894331 447.11122692 452.05733234 451.38788307 C456.19594555 455.51569593 460.32594525 459.65202388 464.45214081 463.79224682 C466.20315329 465.54777111 467.95625472 467.3012144 469.711483 469.05252361 C472.16257851 471.50070586 474.60373948 473.95838137 477.04245186 476.41889095 C477.76715675 477.1390942 478.49186165 477.85929745 479.2385273 478.60132504 C484.29819192 483.73627055 488.02640615 488.29479211 488.03732491 495.81781673 C487.86119663 501.21908398 486.97378395 504.14123999 483.59982491 508.38031673 C478.63776046 512.32971497 474.70428955 512.83791127 468.44357491 512.91156673 C460.88757572 511.50000645 455.82597289 506.04367434 450.61667061 500.80121517 C449.46897697 499.66381641 449.46897697 499.66381641 448.29809761 498.5034399 C445.78289413 496.00646745 443.27886093 493.4986388 440.77560616 490.98969173 C439.02435902 489.24300795 437.27274099 487.49669595 435.52076912 485.7507391 C431.85513807 482.09403181 428.19522739 478.43171326 424.53903389 474.76557064 C419.86022623 470.07527138 415.16575048 465.40101699 410.46662807 460.73108196 C406.84699538 457.12982107 403.23674579 453.51926721 399.62914276 449.90595913 C397.90230634 448.17896963 396.17237391 446.45506997 394.4392662 444.73437405 C392.01470907 442.32474324 389.60331619 439.90264251 387.19479561 437.47699642 C386.48146568 436.77333447 385.76813576 436.06967251 385.03318977 435.34468746 C375.60995104 425.78106194 375.60995104 425.78106194 375.59520626 419.37308788 C375.67676983 418.36636343 375.67676983 418.36636343 375.75998116 417.33930111 C375.53252515 411.71669964 373.00231984 409.7520761 369.03732491 406.03656673 C368.03850288 405.05472408 368.03850288 405.05472408 367.01950264 404.05304623 C364.89770458 401.9758718 362.74977435 399.9282999 360.59982491 397.88031673 C359.15269424 396.47333019 357.70735922 395.06449426 356.26388741 393.65375423 C352.72964317 390.20750378 349.17170041 386.78753131 345.59982491 383.38031673 C343.86798811 384.48177553 342.13623344 385.58336346 340.40451241 386.68500423 C339.44013252 387.29843685 338.47575264 387.91186947 337.48214912 388.54389095 C335.63694712 389.71953126 333.79395517 390.89865203 331.95382881 392.08222103 C311.56354508 405.10028936 284.99111436 408.62616882 261.41232491 404.13031673 C259.13168448 403.58658789 256.85939048 403.00587666 254.59982491 402.38031673 C253.58146553 402.10187923 252.56310616 401.82344173 251.51388741 401.53656673 C238.41086919 397.54719636 227.18340643 390.9804452 216.59982491 382.38031673 C215.89470772 381.84019955 215.18959053 381.30008236 214.46310616 380.74359798 C210.08555296 377.21846894 206.54917055 373.11507607 203.03732491 368.75531673 C202.60218575 368.22398129 202.16704659 367.69264584 201.71872139 367.14520931 C198.64369205 363.20502359 196.27278743 359.03633755 193.9242878 354.62494564 C193.60309219 354.02334118 193.28189659 353.42173672 192.95096779 352.80190182 C192.1650879 351.3291937 191.38215585 349.85491318 190.59982491 348.38031673 C189.59375757 348.37977197 188.58769024 348.3792272 187.55113602 348.37866592 C163.05436907 348.36426093 138.55777962 348.32120454 114.06111526 348.24822617 C102.2146226 348.21359519 90.36824607 348.18822311 78.52169991 348.18476009 C68.19443833 348.18171759 57.86738369 348.16118836 47.54020202 348.11979216 C42.07362472 348.09848673 36.60734144 348.08584905 31.14072227 348.09416294 C25.9909089 348.10171844 20.84169052 348.08581892 15.69198608 348.05225658 C13.80628716 348.04404145 11.92052887 348.04425189 10.03483582 348.05371952 C-9.09335387 348.14021716 -9.09335387 348.14021716 -16.40017509 342.38031673 C-21.50902782 336.9221183 -24.64445064 331.53211277 -24.66023731 323.91759777 C-24.6673029 322.8263734 -24.67436849 321.73514903 -24.68164819 320.61085725 C-24.67923311 319.41758466 -24.67681803 318.22431208 -24.67432976 316.99487972 C-24.67956644 315.72288935 -24.68480312 314.45089899 -24.69019848 313.14036345 C-24.70437339 309.61172349 -24.70604187 306.08317162 -24.70560157 302.55450726 C-24.70725023 298.74796128 -24.72031767 294.94145156 -24.73179436 291.13492489 C-24.75463966 282.81256856 -24.76256444 274.49023774 -24.7676208 266.16785431 C-24.77087833 260.97042937 -24.77740115 255.77301184 -24.78462219 250.57559109 C-24.80418741 236.18263773 -24.82059211 221.78969126 -24.82349873 207.39672375 C-24.8236863 206.4757687 -24.82387387 205.55481365 -24.82406712 204.60595088 C-24.82443337 202.73898713 -24.82479707 200.87202338 -24.82515823 199.00505963 C-24.82534104 198.07830854 -24.82552385 197.15155744 -24.8257122 196.19672298 C-24.82589275 195.26883948 -24.8260733 194.34095597 -24.82625932 193.38495478 C-24.82980092 178.3501479 -24.85682271 163.31548426 -24.89421009 148.28072706 C-24.93229659 132.8411582 -24.95165623 117.40166041 -24.95195824 101.96204352 C-24.95254273 93.29468701 -24.96102922 84.62750138 -24.9899559 75.96018887 C-25.01447437 68.57982085 -25.02174959 61.19968602 -25.00670838 53.81928828 C-24.99954132 50.05502258 -25.00038745 46.29121731 -25.02311897 42.52700329 C-25.04754956 38.44222692 -25.03306777 34.35849716 -25.01490593 30.27368832 C-25.0281059 29.08933862 -25.04130587 27.90498892 -25.05490583 26.68474984 C-24.97428767 18.74692781 -23.4753643 12.7496657 -17.95750803 6.8335135 C-12.42194348 1.91502478 -7.33571131 0.0058362 0 0 Z M-7.40017509 70.38031673 C-8.13562328 72.51851339 -8.13562328 72.51851339 -8.02658749 74.85938168 C-8.03900952 75.75662834 -8.05143156 76.65387501 -8.06423002 77.57831097 C-8.0523943 78.56001389 -8.04055857 79.5417168 -8.02836418 80.5531683 C-8.03545857 81.59915314 -8.04255296 82.64513798 -8.04986233 83.72281933 C-8.06751038 87.23923025 -8.04930184 90.75454582 -8.03127861 94.27094173 C-8.03641479 96.78718222 -8.04369378 99.30341912 -8.05296135 101.81964779 C-8.06959273 107.9514199 -8.06281524 114.08278371 -8.04487313 120.21454048 C-8.03085527 125.19727167 -8.02695255 130.17991635 -8.0303154 135.16266537 C-8.03079284 135.87146099 -8.03127028 136.58025662 -8.03176219 137.3105309 C-8.03278851 138.75037386 -8.03384387 140.1902168 -8.03492796 141.63005972 C-8.04349826 154.36588623 -8.02680939 167.1015589 -7.99709892 179.83734798 C-7.96826067 192.19939289 -7.9611775 204.56121617 -7.97659111 216.92328548 C-7.99334693 230.38029369 -7.99739384 243.83719663 -7.97988075 257.29420757 C-7.97803634 258.7287944 -7.97620161 260.16338125 -7.97437668 261.5979681 C-7.97346459 262.30383753 -7.9725525 263.00970696 -7.97161277 263.73696637 C-7.9660035 268.71449605 -7.96931818 273.6919744 -7.97592163 278.6695013 C-7.98445432 285.3672322 -7.97151588 292.06459523 -7.94407272 298.76229 C-7.93716927 301.22459112 -7.93711175 303.68692204 -7.94428825 306.14922237 C-7.95293697 309.50233094 -7.93710348 312.85444042 -7.91483879 316.20746517 C-7.92307956 317.18916809 -7.93132033 318.17087101 -7.93981081 319.1823225 C-7.8919575 323.06876674 -7.85973792 325.61072808 -5.84414768 328.98605633 C-2.50000584 330.89385373 0.47150273 330.92197602 4.21805 330.8613348 C4.98917555 330.8647525 5.76030109 330.8681702 6.55479407 330.87169147 C9.14081957 330.87828444 11.72580898 330.8562717 14.31173897 330.8344183 C16.16452192 330.83329012 18.01730666 330.83392309 19.87008858 330.83618832 C24.90290526 330.83733756 29.93534181 330.81379412 34.96807003 330.78589249 C40.22646669 330.76091394 45.48487173 330.75853963 50.74331856 330.75379086 C60.70223954 330.74135066 70.66098521 330.70851486 80.61982894 330.6683929 C91.95704523 330.62370772 103.29426982 330.60169633 114.63155222 330.58161116 C137.95440703 330.53978319 161.27710615 330.46941079 184.59982491 330.38031673 C184.52913858 329.62677473 184.45845226 328.87323273 184.38562393 328.09685612 C184.24815656 326.61272378 184.24815656 326.61272378 184.10791206 325.09860897 C184.01660074 324.11819197 183.92528942 323.13777496 183.83121109 322.12764835 C183.57257717 319.05679453 183.47057954 316.01649625 183.46701241 312.93500423 C183.46572334 311.83801205 183.46443428 310.74101986 183.46310616 309.61078548 C183.46697334 308.5034808 183.47084053 307.39617611 183.47482491 306.25531673 C183.47095772 305.14027767 183.46709053 304.02523861 183.46310616 302.87641048 C183.47433982 293.33902788 184.07516211 284.80938322 187.16232491 275.75531673 C187.55605293 274.59516048 187.55605293 274.59516048 187.95773506 273.41156673 C192.21007196 261.36780349 198.22421516 251.05801708 206.59982491 241.38031673 C207.23662178 240.55273861 207.87341866 239.72516048 208.52951241 238.87250423 C221.74939443 222.95875946 245.56868927 210.66936266 265.96139717 208.57440853 C271.10825659 208.19578789 276.25381502 208.19581065 281.41232491 208.19281673 C282.51125069 208.18057064 283.61017647 208.16832455 284.74240303 208.15570736 C295.49641494 208.13669614 305.48352491 209.43533803 315.47482491 213.50531673 C316.24020576 213.81316097 317.00558662 214.12100521 317.79416084 214.43817806 C343.22064438 224.95135654 361.58047424 243.19652107 372.59982491 268.38031673 C379.62265926 285.77956308 381.0510852 304.3502681 378.58419991 322.85297298 C378.48993721 323.58197811 378.39567451 324.31098324 378.29855537 325.06207943 C378.06882243 326.83523974 377.8347813 328.60784101 377.59982491 330.38031673 C383.08075184 330.45451701 388.56138589 330.50894253 394.042696 330.54511166 C395.90700562 330.56019087 397.77127982 330.58065734 399.63546944 330.60663509 C402.31638524 330.6430567 404.9968317 330.66005164 407.67794991 330.67328548 C408.51038216 330.68876934 409.34281441 330.7042532 410.20047188 330.72020626 C413.69000481 330.72121932 415.97812465 330.71191048 419.09494209 329.04950619 C421.59330832 326.27836247 421.7262391 323.63923728 421.73963261 320.07394505 C421.74532385 319.18975631 421.75101509 318.30556758 421.75687879 317.39458525 C421.75864861 315.93619406 421.75864861 315.93619406 421.76045418 314.44834042 C421.765542 313.41616622 421.77062982 312.38399203 421.77587181 311.32053983 C421.79162859 307.84518689 421.80012979 304.36985478 421.80856514 300.89447689 C421.81810076 298.40956648 421.82799179 295.92465741 421.83821297 293.43974972 C421.86691196 285.97188228 421.88668018 278.50401514 421.90360531 271.0361138 C421.90840055 268.92734194 421.91338382 266.8185706 421.91841054 264.70979929 C421.94937572 251.61710048 421.97606294 238.52439725 421.99282932 225.4316721 C421.99677886 222.3995796 422.00078185 219.36748719 422.0048542 216.33539486 C422.00636674 215.20496864 422.00636674 215.20496864 422.00790984 214.05170552 C422.02492605 201.83667198 422.06604712 189.6218407 422.11687719 177.40690596 C422.16862153 164.86929985 422.1977671 152.33179787 422.20502621 139.79408586 C422.20969186 132.75319142 422.22447852 125.71262852 422.26477051 118.67183971 C422.30261169 112.05129507 422.31008471 105.43121375 422.29676437 98.8105402 C422.29681851 96.37765331 422.30719143 93.94474202 422.32851601 91.51194859 C422.35603338 88.19602678 422.34676077 84.88219633 422.32808113 81.56626034 C422.34487606 80.59846099 422.36167099 79.63066163 422.37897485 78.63353503 C422.36013037 77.29942869 422.36013037 77.29942869 422.34090519 75.9383707 C422.34264144 75.17334158 422.34437769 74.40831245 422.34616655 73.62010062 C421.17154995 70.09505635 418.73643949 68.15781643 415.59982491 66.38031673 C412.1312043 65.63989308 412.1312043 65.63989308 408.34744358 65.75390434 C407.6362783 65.74693674 406.92511301 65.73996913 406.19239727 65.73279038 C403.80873007 65.71554139 401.42668747 65.73391255 399.04304695 65.75212765 C397.31725803 65.74708262 395.59147433 65.73985414 393.86570269 65.7306295 C389.12287823 65.71167412 384.38056831 65.72395946 379.63775671 65.74135244 C374.52317143 65.75470577 369.40866246 65.7392967 364.29408455 65.72753048 C354.27473834 65.70913474 344.25558693 65.71767897 334.23624676 65.7356187 C326.09520889 65.7496337 317.95422397 65.75353987 309.8131752 65.75017643 C308.07640853 65.74946027 308.07640853 65.74946027 306.30455567 65.74872964 C303.95256752 65.74770333 301.60057938 65.74664797 299.24859125 65.74556387 C278.44334821 65.73699299 257.63819933 65.75368485 236.8329792 65.78339291 C216.63404574 65.81223494 196.43524792 65.81931257 176.23629951 65.80390072 C154.25151897 65.78714929 132.26680285 65.78309326 110.28202063 65.80061108 C107.93890004 65.80245551 105.59577945 65.80429024 103.25265884 65.80611515 C101.52327194 65.80748329 101.52327194 65.80748329 99.75894792 65.80887906 C91.62494737 65.81449075 83.49097822 65.81117142 75.35697937 65.8045702 C65.44835933 65.79684816 55.53987294 65.80354894 45.63127988 65.82874524 C40.57346146 65.84126608 35.5158514 65.8473555 30.45802498 65.83620358 C25.83117296 65.82619432 21.20473728 65.83454977 16.57793612 65.85778476 C14.90105943 65.86296235 13.22414571 65.86134945 11.54728495 65.8523901 C9.27314232 65.84124706 7.00042027 65.85457046 4.72636509 65.87415886 C3.46173134 65.87535034 2.1970976 65.87654182 0.89414161 65.87776941 C-3.03615756 66.47733573 -4.70349981 67.4845669 -7.40017509 70.38031673 Z " fill="#D8D6D9" transform="translate(24.400175094604492,-0.38031673431396484)"/>
<path d="M0 0 C54.38848228 -0.09039671 108.77694656 -0.1620229 163.16548905 -0.20426132 C169.58428449 -0.20926424 176.00307978 -0.21444152 182.421875 -0.21972656 C184.33870196 -0.22130043 184.33870196 -0.22130043 186.29425269 -0.22290608 C206.99468945 -0.24031869 227.69508183 -0.27186112 248.39549226 -0.30861118 C269.63072115 -0.34599675 290.86592678 -0.36823081 312.10118723 -0.37635398 C325.20801846 -0.38184669 338.31472431 -0.39920469 351.42151695 -0.43166587 C360.40524516 -0.45278429 369.38890839 -0.45920609 378.37265962 -0.45400551 C383.55841911 -0.45143959 388.74395924 -0.45541602 393.92967987 -0.4768219 C398.67716679 -0.49627591 403.42428667 -0.49727738 408.17179042 -0.48359558 C409.88929082 -0.48190441 411.60681405 -0.48698831 413.32426947 -0.49953273 C430.51876361 -0.61782039 430.51876361 -0.61782039 438.20703125 5.859375 C438.73683594 6.48328125 439.26664062 7.1071875 439.8125 7.75 C440.35519531 8.36359375 440.89789063 8.9771875 441.45703125 9.609375 C446.26305426 17.05566888 446.42865242 23.96524103 446.3742218 32.59002686 C446.37819621 33.84769057 446.38217061 35.10535428 446.38626546 36.40112901 C446.39681278 39.87570493 446.38874929 43.35002212 446.37751496 46.82458663 C446.36865002 50.57780661 446.37712293 54.33099357 446.38337708 58.08421326 C446.39285267 65.42919939 446.38627673 72.7740871 446.37411413 80.11906591 C446.36047981 88.67184037 446.36213317 97.2245915 446.36424746 105.77737406 C446.36743534 121.03438285 446.35577969 136.29134491 446.33618164 151.54833984 C446.31716496 166.35662254 446.31009783 181.1648505 446.31567383 195.97314453 C446.32172864 212.10073553 446.32156104 228.22830247 446.310188 244.35589147 C446.3089807 246.07463535 446.30777471 247.79337923 446.30657005 249.51212311 C446.30566475 250.78061176 446.30566475 250.78061176 446.30474115 252.07472645 C446.30085931 258.03863825 446.3012566 264.0025411 446.3031559 269.96645355 C446.3052757 277.22973153 446.30006978 284.49296153 446.28554235 291.75622597 C446.27828867 295.4630362 446.27422966 299.16977647 446.27878571 302.87659264 C446.28359924 306.89043372 446.2729665 310.90408256 446.26069641 314.91790771 C446.26447573 316.09532052 446.26825506 317.27273332 446.27214891 318.4858253 C446.26631671 319.55825835 446.26048452 320.63069139 446.25447559 321.73562241 C446.25360882 322.66236007 446.25274204 323.58909774 446.251849 324.54391837 C446 327 446 327 444 331 C437.73 330.67 431.46 330.34 425 330 C425.99 328.02 426.98 326.04 428 324 C428.43854594 321.65493004 428.43854594 321.65493004 428.38311005 319.32169151 C428.39216669 318.43091294 428.40122333 317.54013436 428.41055441 316.62236249 C428.40522648 315.6581581 428.39989856 314.69395371 428.39440918 313.70053101 C428.40354584 312.14736646 428.40354584 312.14736646 428.41286707 310.56282485 C428.42951206 307.09434326 428.42471904 303.62622818 428.41992188 300.15771484 C428.42726113 297.67073688 428.43584694 295.18376232 428.44558716 292.6967926 C428.4655133 286.64426921 428.47118329 280.59188986 428.46939927 274.53934644 C428.46809111 269.62103343 428.4718985 264.70275029 428.47932434 259.7844429 C428.48142353 258.36723284 428.48352114 256.95002278 428.48561716 255.53281271 C428.48666069 254.82742773 428.48770422 254.12204275 428.48877937 253.39528246 C428.50767218 240.06166752 428.50663392 226.72810762 428.49981004 213.39448483 C428.49423005 201.19191364 428.51508102 188.98955209 428.54817051 176.78702991 C428.581884 164.25722505 428.59707913 151.72752071 428.59245348 139.19766963 C428.59020708 132.16306789 428.59547725 125.12866015 428.62034607 118.09409714 C428.64351791 111.48336612 428.64080529 104.87299998 428.62041855 98.26223564 C428.61699404 95.83217087 428.62215902 93.40207706 428.63640213 90.97205162 C428.65446567 87.66268327 428.64194062 84.3548227 428.62145996 81.04550171 C428.63397781 80.07683587 428.64649566 79.10817004 428.65939283 78.11015069 C428.64758749 77.22458761 428.63578216 76.33902453 428.62361908 75.42662621 C428.62402766 74.28095226 428.62402766 74.28095226 428.62444448 73.11213338 C427.64332081 69.79356125 425.91623012 68.76025547 423 67 C419.62826703 66.40503234 419.62826703 66.40503234 415.8706665 66.50222206 C414.80564934 66.49440021 414.80564934 66.49440021 413.71911669 66.48642033 C411.33354325 66.47380041 408.94901897 66.4897564 406.56347656 66.50552368 C404.83855422 66.50234781 403.11363437 66.49742093 401.38872147 66.49089086 C396.64369252 66.47804478 391.89900404 66.49021452 387.15399742 66.50641942 C382.03872957 66.51955949 376.92350021 66.50967951 371.80822754 66.50265503 C361.78541966 66.49256346 351.76274359 66.50386376 341.73995209 66.52235563 C330.07413298 66.54310652 318.40834251 66.5429837 306.74250841 66.54201047 C285.93117566 66.5410088 265.11990433 66.55934387 244.30859375 66.58837891 C224.1028532 66.61655459 203.89716672 66.63072048 183.69140625 66.62939453 C181.82477097 66.62927466 181.82477097 66.62927466 179.92042589 66.62915237 C178.67817861 66.62907166 177.43593133 66.62899095 176.15604019 66.6289078 C153.16973918 66.62752876 130.18346119 66.63930455 107.19716763 66.65721423 C99.06068425 66.66325209 90.9242051 66.66537397 82.78771973 66.66627884 C72.87545078 66.66764192 62.96322064 66.6765546 53.05096817 66.69494446 C47.99118467 66.70419025 42.93145085 66.71026783 37.87165833 66.70775604 C33.2430274 66.70556968 28.61450647 66.71257995 23.98589849 66.72705309 C22.30831587 66.73068636 20.63072191 66.73093392 18.95313883 66.72751851 C16.67840576 66.72339898 14.40403498 66.7314985 12.1293335 66.74273109 C10.23156977 66.74484437 10.23156977 66.74484437 8.29546738 66.74700034 C4.61656729 66.86411826 4.61656729 66.86411826 0 69 C0 46.23 0 23.46 0 0 Z " fill="#ECEAEC" transform="translate(17,0)"/>
<path d="M0 0 C3.50261559 2.84164652 6.78462444 5.8383035 10 9 C10.69996094 9.68707031 11.39992188 10.37414062 12.12109375 11.08203125 C27.96136326 27.72512144 33.69510099 49.47507905 33.18359375 71.9609375 C32.32726624 94.6722324 20.9399984 113.78346599 5.01953125 129.35546875 C-11.22265665 144.10705927 -33.29366231 149.86373693 -54.70947266 149.12744141 C-76.8932647 147.89316946 -96.09969386 138.01602652 -111.4296875 122.015625 C-126.71378505 104.08352271 -133.68177542 81.81394697 -132.21875 58.42382812 C-130.24203567 36.52112734 -118.60670508 16.21460352 -102 2 C-71.70831473 -21.13352703 -30.99441002 -22.6655157 0 0 Z " fill="#FEFEFE" transform="translate(355,239)"/>
<path d="M0 0 C1.46373047 0.05414063 1.46373047 0.05414063 2.95703125 0.109375 C4.06111328 0.17898437 4.06111328 0.17898437 5.1875 0.25 C5.18988835 1.40552557 5.19227671 2.56105114 5.19473743 3.75159264 C5.25214523 31.20529745 5.32490979 58.6589268 5.41648628 86.11253979 C5.42775392 89.49445975 5.43889246 92.87638013 5.44995117 96.25830078 C5.45215486 96.93155662 5.45435854 97.60481245 5.456629 98.29846998 C5.49196407 109.18779942 5.51684957 120.0771288 5.53784702 130.96649425 C5.55963932 142.14692758 5.59294331 153.32729418 5.63620156 164.50766718 C5.66012505 170.78459754 5.67885964 177.06144597 5.68511391 183.33842087 C5.69116859 189.24977532 5.7111828 195.16092015 5.74177551 201.07219696 C5.7505495 203.23848387 5.75427965 205.40479819 5.75250816 207.57110214 C5.75084907 210.53684886 5.76760912 213.50196138 5.78877258 216.46762085 C5.78392501 217.31784675 5.77907743 218.16807265 5.77408296 219.04406297 C5.85775067 226.18547435 7.1523012 233.02175363 11 239.125 C17.12011132 245.070251 23.29275506 247.48705671 31.75546265 247.5284729 C33.05949036 247.53963638 34.36351807 247.55079987 35.70706177 247.56230164 C37.13983125 247.56466623 38.57260106 247.56684195 40.00537109 247.56884766 C41.52348359 247.578152 43.04159099 247.58832143 44.55969238 247.59928894 C48.67076544 247.62654596 52.7818043 247.64172558 56.89294386 247.65471697 C61.1931242 247.67036633 65.49323492 247.6971508 69.79336548 247.7227478 C77.93172872 247.76950363 86.07010511 247.8062632 94.20853388 247.83942068 C103.47577071 247.87766465 112.74293757 247.92706886 122.01011539 247.97740483 C141.06919317 248.08067715 160.12831313 248.16955697 179.1875 248.25 C180.1775 256.17 180.1775 256.17 181.1875 264.25 C156.7444593 264.34253085 132.30146066 264.41394506 107.85828018 264.45724869 C96.50930068 264.47788827 85.16043189 264.50603559 73.81152344 264.55175781 C63.92169807 264.59158278 54.03195287 264.61742265 44.14204955 264.62635398 C38.90368336 264.63157607 33.66554652 264.64387893 28.42725372 264.67292023 C23.49921753 264.70002072 18.57150573 264.70845586 13.6434021 264.70243073 C11.83254993 264.70353337 10.02168719 264.71151913 8.21089935 264.7268219 C5.74210653 264.74666625 3.27454524 264.7419601 0.8057251 264.73101807 C0.08587818 264.74266943 -0.63396873 264.7543208 -1.37562919 264.76632524 C-4.45747955 264.72929615 -6.56628996 264.39046021 -9.25647259 262.85573959 C-11.71115537 258.74510242 -11.36663574 254.77935887 -11.3271637 250.07714844 C-11.33410922 249.0311636 -11.34105475 247.98517876 -11.34821075 246.90749741 C-11.3665543 243.39124175 -11.35619565 239.87565517 -11.34594727 236.359375 C-11.35300195 233.84313449 -11.36174505 231.32689822 -11.37205505 228.81066895 C-11.39226419 222.67896201 -11.39356419 216.5475037 -11.38542951 210.41577625 C-11.37913318 205.43304971 -11.38026315 200.45037732 -11.38670158 195.46765137 C-11.38760324 194.75885574 -11.38850489 194.05006011 -11.38943387 193.31978583 C-11.39128504 191.87994288 -11.3931476 190.44009994 -11.39502143 189.00025702 C-11.41160536 175.49447137 -11.40287549 161.98879015 -11.38603585 148.48301077 C-11.37133636 136.12187731 -11.38596963 123.76098686 -11.41480602 111.3998847 C-11.44418484 98.71193296 -11.45517688 86.02409344 -11.44562382 73.33610916 C-11.44460125 71.90152234 -11.44360664 70.46693549 -11.4426403 69.03234863 C-11.44216391 68.3264792 -11.44168752 67.62060977 -11.4411967 66.89335036 C-11.43903066 61.91579553 -11.44884659 56.93834673 -11.46341133 51.96081543 C-11.48273604 45.26304602 -11.47588064 38.56580121 -11.45121193 31.86802673 C-11.44618584 29.40571827 -11.44974 26.94337561 -11.46236038 24.48109436 C-11.4781918 21.12781903 -11.46343217 17.77605428 -11.44068909 14.42285156 C-11.45252482 13.44114864 -11.46436054 12.45944572 -11.47655493 11.44799423 C-11.38646999 4.94113838 -11.38646999 4.94113838 -8.63651943 1.62982178 C-5.45987224 0.07770534 -3.51157473 -0.16923252 0 0 Z " fill="#4B3F4E" transform="translate(27.8125,65.75)"/>
<path d="M0 0 C1.12167633 -0.00644889 2.24335266 -0.01289778 3.39901918 -0.0195421 C4.63654658 -0.01644489 5.87407398 -0.01334769 7.14910221 -0.01015663 C8.45966353 -0.01468774 9.77022485 -0.01921886 11.12050015 -0.02388728 C14.76593001 -0.0361539 18.41126836 -0.03585253 22.05671418 -0.03349853 C25.98521449 -0.03309129 29.9136851 -0.04412056 33.84217167 -0.05361366 C41.54141193 -0.07024427 49.24062157 -0.07572412 56.93987828 -0.07683842 C63.19597517 -0.07778784 69.45206194 -0.08189282 75.70815563 -0.08823967 C93.43352029 -0.10585705 111.15886071 -0.11507767 128.88423418 -0.11357872 C130.3183519 -0.11345885 130.3183519 -0.11345885 131.78144169 -0.11333656 C133.21730408 -0.11321392 133.21730408 -0.11321392 134.6821738 -0.1130888 C150.20221925 -0.11227557 165.72216772 -0.1314212 181.24218511 -0.1596133 C197.16644108 -0.18831218 213.09064971 -0.20215527 229.01493222 -0.20042574 C237.95990916 -0.19976084 246.90478442 -0.20529685 255.84973812 -0.22678185 C263.46450088 -0.24495422 271.07911586 -0.24937353 278.69389086 -0.235763 C282.5809972 -0.22921351 286.46781972 -0.22918694 290.35489941 -0.2464695 C294.5640238 -0.26499193 298.77248539 -0.25269775 302.98162174 -0.23720741 C304.21691842 -0.24749454 305.4522151 -0.25778167 306.72494501 -0.26838052 C308.41137112 -0.25458414 308.41137112 -0.25458414 310.13186646 -0.24050903 C311.10384316 -0.24094377 312.07581987 -0.24137851 313.07725042 -0.24182642 C316.38415446 0.40500622 317.55918721 1.64904102 319.6288538 4.25726891 C320.55204012 7.42247914 320.92709122 9.36255665 319.8788538 12.50726891 C318.6288538 14.25726891 318.6288538 14.25726891 315.6288538 16.25726891 C313.20259959 16.51026857 313.20259959 16.51026857 310.2577076 16.51453781 C309.13603127 16.5209867 308.01435494 16.5274356 306.85868841 16.53407991 C305.62116101 16.53098271 304.38363361 16.5278855 303.10860538 16.52469444 C301.79804407 16.52922556 300.48748275 16.53375667 299.13720745 16.53842509 C295.49177758 16.55069171 291.84643923 16.55039034 288.20099342 16.54803634 C284.2724931 16.5476291 280.34402249 16.55865837 276.41553593 16.56815147 C268.71629567 16.58478208 261.01708603 16.59026193 253.31782932 16.59137623 C247.06173242 16.59232565 240.80564566 16.59643063 234.54955196 16.60277748 C216.8241873 16.62039487 199.09884689 16.62961548 181.37347341 16.62811653 C180.41739494 16.62803662 179.46131646 16.62795671 178.47626591 16.62787437 C177.51902431 16.62779261 176.56178272 16.62771085 175.5755338 16.62762661 C160.05548835 16.62681338 144.53553988 16.64595901 129.01552249 16.67415111 C113.09126651 16.70284999 97.16705789 16.71669308 81.24277538 16.71496356 C72.29779844 16.71429865 63.35292318 16.71983466 54.40796947 16.74131966 C46.79320672 16.75949203 39.17859174 16.76391134 31.56381673 16.75030081 C27.67671039 16.74375133 23.78988788 16.74372475 19.90280819 16.76100731 C15.69368379 16.77952974 11.48522221 16.76723557 7.27608585 16.75174522 C5.42314084 16.76717591 5.42314084 16.76717591 3.53276259 16.78291833 C2.40847851 16.77372074 1.28419443 16.76452315 0.12584114 16.75504684 C-1.33212392 16.75569895 -1.33212392 16.75569895 -2.81954283 16.75636423 C-6.12644687 16.10953159 -7.30147962 14.8654968 -9.3711462 12.25726891 C-10.29433252 9.09205867 -10.66938362 7.15198116 -9.6211462 4.00726891 C-6.92244601 0.22908864 -4.32896547 0.00627575 0 0 Z " fill="#FEFEFE" transform="translate(117.3711462020874,24.74273109436035)"/>
<path d="M0 0 C1.06412109 -0.02900391 2.12824219 -0.05800781 3.22460938 -0.08789062 C10.70501871 -0.14795568 16.31059765 0.78496476 22.02612305 5.82299805 C23.3125 7.3125 23.3125 7.3125 23.3125 9.3125 C23.95316406 8.86777344 24.59382813 8.42304688 25.25390625 7.96484375 C32.31574625 3.34465335 32.31574625 3.34465335 37.1875 3.1875 C40.64616307 4.43261871 42.25272812 5.26403761 44.3125 8.3125 C44.93216115 11.95300926 44.68097866 13.68301562 42.8125 16.875 C39.63462282 19.97343025 36.15331546 22.12174361 32.3125 24.3125 C33.19292969 24.32667969 34.07335937 24.34085937 34.98046875 24.35546875 C44.45228495 24.74443346 44.45228495 24.74443346 48.625 27.5 C50.66049275 30.89248791 51.12120757 32.43070367 50.3125 36.3125 C48.6539229 39.18311422 48.19933609 39.94359876 45.3125 41.3125 C40.64783966 42.03095278 36.0278521 42.24231208 31.3125 42.3125 C32.34310547 42.89257812 32.34310547 42.89257812 33.39453125 43.484375 C34.29558594 44.00515625 35.19664062 44.5259375 36.125 45.0625 C37.01832031 45.57296875 37.91164063 46.0834375 38.83203125 46.609375 C41.34114619 48.33216888 42.79391203 49.68671412 44.3125 52.3125 C44.19317077 55.71338303 43.95391645 58.24347259 42.1875 61.1875 C39.01477307 63.09113616 37.05359364 63.37188244 33.3125 63.3125 C30.59780649 61.90503583 28.14251387 60.32485624 25.64453125 58.5625 C23.43909659 57.11073876 23.43909659 57.11073876 21.1875 57.4765625 C18.7302053 58.57210639 16.95391038 60.29891667 14.92578125 62.03515625 C9.43467427 66.3828366 4.07089325 66.85163706 -2.75 66.6640625 C-8.62087749 65.96143089 -12.35052257 63.67986329 -16.4375 59.5 C-17.18 58.778125 -17.9225 58.05625 -18.6875 57.3125 C-21.94332838 57.66669054 -24.31181618 59.18115786 -27.0625 60.875 C-30.78612164 62.96266984 -33.36004167 64.39436458 -37.6875 63.3125 C-40.12576648 61.18550158 -41.34917426 60.10526192 -42.6875 57.3125 C-42.8125 53.6875 -42.8125 53.6875 -41.6875 50.3125 C-38.28209499 46.80693602 -33.94658269 44.65081991 -29.6875 42.3125 C-30.64011719 42.29832031 -31.59273438 42.28414063 -32.57421875 42.26953125 C-44.10491899 41.83105652 -44.10491899 41.83105652 -47.0625 39.125 C-49.02370914 35.73059956 -49.4894119 34.16167713 -48.6875 30.3125 C-47.0289229 27.44188578 -46.57433609 26.68140124 -43.6875 25.3125 C-39.02283966 24.59404722 -34.4028521 24.38268792 -29.6875 24.3125 C-30.37457031 23.92578125 -31.06164062 23.5390625 -31.76953125 23.140625 C-32.67058594 22.61984375 -33.57164062 22.0990625 -34.5 21.5625 C-35.39332031 21.05203125 -36.28664063 20.5415625 -37.20703125 20.015625 C-39.70428403 18.30097585 -41.11943218 16.88534915 -42.6875 14.3125 C-43.1875 11.375 -43.1875 11.375 -42.6875 8.3125 C-40.3593956 5.16271169 -38.82203723 3.60273045 -35 2.625 C-29.92104294 3.67912316 -25.97041625 6.46850818 -21.6875 9.3125 C-21.40777344 8.69761719 -21.12804687 8.08273437 -20.83984375 7.44921875 C-16.400605 -0.78218327 -8.08757439 0.07216753 0 0 Z " fill="#FEA85F" transform="translate(304.6875,288.6875)"/>
<path d="M0 0 C4.6412177 3.88519283 9.06307012 7.9107964 13.34667969 12.18554688 C13.9378508 12.77175308 14.52902191 13.35795929 15.1381073 13.96192932 C17.06877168 15.87813391 18.99565216 17.79808132 20.921875 19.71875 C21.58469734 20.37874496 22.24751968 21.03873993 22.93042755 21.71873474 C26.43141969 25.20480768 29.92958106 28.69369109 33.42529297 32.18505859 C37.02867765 35.78293928 40.64126146 39.37143361 44.25605392 42.9578476 C47.0440742 45.72723263 49.82535271 48.50331413 52.60483551 51.28126526 C53.93397991 52.60738956 55.26561729 53.9310202 56.59981537 55.25205994 C58.46401477 57.09916506 60.3184758 58.95554762 62.17089844 60.81445312 C62.71951035 61.35385025 63.26812225 61.89324738 63.83335876 62.44898987 C68.53151578 67.19872629 71.42766317 71.65992276 71.4375 78.4375 C71.26137172 83.83876725 70.37395904 86.76092326 67 91 C62.03793555 94.94939823 58.10446464 95.45759453 51.84375 95.53125 C44.80025483 94.21543222 39.98670744 89.41546737 35.14672852 84.48730469 C34.50197067 83.84298492 33.85721283 83.19866516 33.19291687 82.53482056 C31.08104969 80.42087715 28.97998555 78.29653627 26.87890625 76.171875 C25.40983188 74.69720055 23.94009015 73.22319067 22.4697113 71.74981689 C18.61454237 67.88323175 14.76847076 64.00772042 10.92425537 60.13024902 C6.99469583 56.16991919 3.05655621 52.21814159 -0.88085938 48.265625 C-8.59563746 40.51873964 -16.30082712 32.76239248 -24 25 C-23.04947729 23.8835778 -22.0978835 22.76806745 -21.14584351 21.65293884 C-20.61604071 21.03164062 -20.08623791 20.41034239 -19.54038048 19.77021694 C-17.60584709 17.54703648 -15.56770808 15.45489861 -13.4765625 13.37890625 C-12.68378906 12.58935547 -11.89101563 11.79980469 -11.07421875 10.98632812 C-10.26597656 10.18646484 -9.45773437 9.38660156 -8.625 8.5625 C-7.79355469 7.73556641 -6.96210938 6.90863281 -6.10546875 6.05664062 C-4.0725896 4.03544469 -2.03740037 2.01663665 0 0 Z " fill="#FEA85F" transform="translate(441,417)"/>
<path d="M0 0 C3.02108213 2.06705619 3.83736484 3.41201134 4.8125 6.9375 C4.99584754 9.93217644 4.58753358 12.0817636 4 15 C3.8599637 16.76452396 3.7559922 18.53219044 3.68359375 20.30078125 C3.62075195 21.76547852 3.62075195 21.76547852 3.55664062 23.25976562 C3.51732422 24.26716797 3.47800781 25.27457031 3.4375 26.3125 C3.37272461 27.85260742 3.37272461 27.85260742 3.30664062 29.42382812 C3.20093175 31.94909569 3.09883532 34.47445562 3 37 C1.88496094 37.30421875 0.76992188 37.6084375 -0.37890625 37.921875 C-4.46270148 39.00634112 -4.46270148 39.00634112 -7 42 C-7.66721536 44.91440699 -7.66721536 44.91440699 -7 48 C-3.85604974 52.02818628 0.07183703 54.44122089 4.42578125 56.984375 C4.94527344 57.31953125 5.46476562 57.6546875 6 58 C6 58.33 6 58.66 6 59 C4.96359375 59.02578125 3.9271875 59.0515625 2.859375 59.078125 C1.48954199 59.13441951 0.11975195 59.19176655 -1.25 59.25 C-1.93191406 59.26417969 -2.61382812 59.27835937 -3.31640625 59.29296875 C-6.73149618 59.45874981 -8.70054666 59.77302582 -11.453125 61.859375 C-13.22452874 63.97666721 -13.22452874 63.97666721 -13.5 67 C-12.87062292 70.7762625 -12.0343854 71.70005183 -9 74 C-6.29447755 74.4490016 -3.95769409 74.69369634 -1.25 74.75 C-0.55261719 74.77964844 0.14476562 74.80929687 0.86328125 74.83984375 C2.57490813 74.91018458 4.28745815 74.95739946 6 75 C3.7064079 77.51555262 1.30908209 79.04880582 -1.625 80.75 C-5.03044385 82.98881545 -5.85298253 83.60095258 -7.3125 87.5625 C-6.93218675 91.74594571 -6.20349759 93.28934819 -3 96 C0.48102397 96.91169676 2.36329 96.3586531 5.46875 94.609375 C7.21211487 93.51208064 8.93486806 92.38118876 10.6328125 91.21484375 C13 90 13 90 15.08984375 90.1328125 C17.27540349 91.12502981 18.69453266 92.29114055 20.4375 93.9375 C25.68470837 98.89252043 30.83749768 99.49921397 37.85546875 99.38671875 C43.96307253 98.63559729 49.04624626 95.95375374 53.375 91.625 C53.91125 91.08875 54.4475 90.5525 55 90 C58.24773025 90.42241268 60.56716839 91.85093447 63.3125 93.5625 C67.53268415 95.99399683 70.19253489 96.51143246 75 96 C73.33207547 104.33962264 73.33207547 104.33962264 69 108 C66.5546875 109.37890625 66.5546875 109.37890625 63.875 110.5625 C63.00617188 110.95566406 62.13734375 111.34882813 61.2421875 111.75390625 C52.55496747 115.09272937 45.02959916 116.52790282 35.6875 116.4375 C34.58245117 116.42920166 33.47740234 116.42090332 32.33886719 116.41235352 C24.19847117 116.24371216 17.45915036 115.45693037 10 112 C8.93136719 111.525625 7.86273438 111.05125 6.76171875 110.5625 C-9.3809976 102.67134841 -20.51431317 89.67748043 -27 73 C-27.48146484 71.82824219 -27.48146484 71.82824219 -27.97265625 70.6328125 C-33.20520744 55.39757043 -31.03847892 36.47819163 -24.6796875 21.9921875 C-19.890614 12.5972291 -12.00389964 -1.74602177 0 0 Z " fill="#EBE9EB" transform="translate(270,255)"/>
<path d="M0 0 C1.15238663 -0.0112793 2.30477325 -0.02255859 3.49208069 -0.03417969 C4.74730026 -0.02608276 6.00251984 -0.01798584 7.29577637 -0.00964355 C8.63814553 -0.01506686 9.98050874 -0.02219069 11.32286072 -0.03088379 C14.96136295 -0.0490958 18.59941074 -0.04205873 22.23792076 -0.02936745 C26.04860011 -0.01922862 29.85924098 -0.02863557 33.66992188 -0.03491211 C40.06887791 -0.04218597 46.46764918 -0.03260778 52.86657715 -0.0135498 C60.26087326 0.0082186 67.65472819 0.00116703 75.04901361 -0.02085543 C81.40161998 -0.03901698 87.75409365 -0.04156411 94.10671759 -0.03110075 C97.89910455 -0.02486991 101.69128425 -0.02401873 105.48365784 -0.0372467 C109.04939959 -0.04881577 112.61457347 -0.04076109 116.18025398 -0.01766968 C118.11035001 -0.0098719 120.04049417 -0.02172956 121.9705658 -0.03417969 C123.12295242 -0.02290039 124.27533905 -0.01162109 125.46264648 0 C126.46182854 0.0015081 127.46101059 0.0030162 128.49047089 0.00457001 C132.02347348 0.65341499 133.69825562 2.00101004 136.23132324 4.50793457 C137.29382324 7.94543457 137.29382324 7.94543457 137.23132324 11.50793457 C135.46491152 14.30982903 134.20082502 16.02318368 131.23132324 17.50793457 C129.41834761 17.61410689 127.60148591 17.65620086 125.78544617 17.66856384 C124.05043098 17.68363228 124.05043098 17.68363228 122.28036499 17.69900513 C121.00500885 17.70483612 119.72965271 17.71066711 118.41564941 17.7166748 C117.06387589 17.72621175 115.71210483 17.73610285 114.3603363 17.74632263 C109.91501773 17.77772408 105.46968033 17.7979752 101.02429199 17.81652832 C100.26825754 17.81982564 99.5122231 17.82312296 98.73327851 17.8265202 C91.6046109 17.85729993 84.47593911 17.88401034 77.34722424 17.90093899 C68.22548772 17.92285371 59.10433924 17.96484056 49.98283786 18.03437656 C43.57088609 18.08159919 37.15909308 18.1058701 30.74697286 18.11313587 C26.9163248 18.11809464 23.08633932 18.13319499 19.25588036 18.17288017 C15.65151552 18.20973079 12.04819205 18.21816257 8.44367409 18.20487404 C6.49196694 18.20495374 4.54033208 18.23481395 2.58886719 18.26556396 C-5.71661461 18.19646797 -5.71661461 18.19646797 -8.68640709 16.2528553 C-11.19326909 13.45545016 -11.76441962 11.63139145 -11.89367676 7.88293457 C-9.89164938 1.87685245 -6.12048813 0.00923788 0 0 Z " fill="#FADB7C" transform="translate(110.7686767578125,139.4920654296875)"/>
<path d="M0 0 C3.13879381 1.3875818 5.22254795 2.99523408 7.609375 5.44921875 C8.28226562 6.13306641 8.95515625 6.81691406 9.6484375 7.52148438 C10.68871094 8.59366211 10.68871094 8.59366211 11.75 9.6875 C13.11719069 11.08978019 14.4869772 12.4895343 15.859375 13.88671875 C16.46233398 14.50764404 17.06529297 15.12856934 17.68652344 15.76831055 C19.58379733 17.59851112 21.51111955 19.30557858 23.51269531 21.01708984 C29.25826912 26.01226182 34.57057152 31.44660058 39.9375 36.83984375 C41.06927864 37.97349143 42.2012812 39.10691559 43.33349609 40.24012756 C46.28822011 43.19863851 49.23992653 46.16014181 52.190979 49.12231445 C55.21271471 52.15434725 58.23734394 55.18349067 61.26171875 58.21289062 C67.17728805 64.13912967 73.08966729 70.06853842 79 76 C75.97140865 79.23745972 74.07505988 80.79844164 69.546875 81.23828125 C68.16242188 81.27501953 68.16242188 81.27501953 66.75 81.3125 C65.83734375 81.34988281 64.9246875 81.38726563 63.984375 81.42578125 C56.90258698 80.41542144 52.0472838 75.47688103 47.23852539 70.57910156 C46.60352112 69.94453537 45.96851685 69.30996918 45.31427002 68.65617371 C43.23486698 66.57469483 41.16626951 64.48282253 39.09765625 62.390625 C37.65100222 60.93837075 36.20368069 59.48678114 34.75572205 58.03582764 C30.95973569 54.22842617 27.17284807 50.41209982 23.38781738 46.59381104 C19.51858231 42.69380326 15.64076478 38.80234966 11.76367188 34.91015625 C4.16738181 27.28176085 -3.41931855 19.64390438 -11 12 C-10.06122074 10.8934059 -9.12079084 9.78821201 -8.1796875 8.68359375 C-7.39440674 7.76018188 -7.39440674 7.76018188 -6.59326172 6.81811523 C-4.4984209 4.42763415 -2.28027529 2.21320837 0 0 Z " fill="#FF8B5A" transform="translate(429,431)"/>
<path d="M0 0 C3.1985998 0.57601607 4.77150992 1.41626099 6.98925781 3.77563477 C7.54373596 4.35616104 8.09821411 4.93668732 8.66949463 5.5348053 C9.25809265 6.16398361 9.84669067 6.79316193 10.453125 7.44140625 C11.72451668 8.76048288 12.99667641 10.07881958 14.26953125 11.39648438 C16.26406761 13.47770767 18.25175823 15.56437053 20.22607422 17.66479492 C22.13792915 19.69181896 24.07430899 21.69263545 26.015625 23.69140625 C26.5961261 24.3226088 27.1766272 24.95381134 27.77471924 25.60414124 C30.92030133 28.87355018 30.92030133 28.87355018 35.08288574 30.3432312 C37.05841151 30.31799804 39.03112363 30.16390427 41 30 C49.49138121 32.8304604 55.00129429 39.64137195 61 46 C59.43717018 49.76603869 57.0936525 52.13639151 54.2109375 54.984375 C53.74765045 55.44483215 53.2843634 55.90528931 52.80703735 56.37969971 C51.33434102 57.84125078 49.85482597 59.29567168 48.375 60.75 C47.37193678 61.74302611 46.36932743 62.73651089 45.3671875 63.73046875 C42.91669165 66.15897941 40.4600333 68.58114675 38 71 C30.49092624 67.46970343 24.23004663 60.55890018 20.5234375 53.1796875 C20 51 20 51 20.37963867 47.31396484 C20.39134446 43.70761461 19.65423999 42.05950098 17.23022461 39.40136719 C15.9736384 38.17962182 14.69627577 36.97899622 13.40234375 35.796875 C12.73409073 35.15179993 12.06583771 34.50672485 11.37733459 33.84210205 C9.24889925 31.79130872 7.09595156 29.76914229 4.9375 27.75 C2.77835852 25.71402538 0.62559963 23.67255236 -1.51304626 21.61505127 C-2.84254381 20.33745109 -4.1844175 19.0725843 -5.5393219 17.82196045 C-6.14001999 17.24746155 -6.74071808 16.67296265 -7.35961914 16.08105469 C-7.89478653 15.58112 -8.42995392 15.0811853 -8.9813385 14.56610107 C-10 13 -10 13 -9.76243591 10.9072876 C-8.79970724 8.49895342 -7.59747839 7.52402161 -5.5625 5.9375 C-3.08722511 3.98931914 -1.79578076 2.69367114 0 0 Z " fill="#D9D7DA" transform="translate(380,370)"/>
<path d="M0 0 C0.83965302 -0.00861557 1.67930603 -0.01723114 2.54440308 -0.02610779 C5.31320235 -0.04876492 8.08098921 -0.04202926 10.84985352 -0.03295898 C12.77889812 -0.03819491 14.70794015 -0.04447127 16.63697815 -0.05174255 C20.67786718 -0.06214646 24.71840407 -0.05758574 28.75927734 -0.04296875 C33.93238266 -0.02578607 39.10437674 -0.04926987 44.27735806 -0.08445835 C48.26059806 -0.10644175 52.24357259 -0.1049885 56.22685432 -0.09669304 C58.13380209 -0.09587394 60.04076943 -0.10272947 61.94766045 -0.11746407 C64.61683881 -0.13492642 67.28402596 -0.12035425 69.953125 -0.09765625 C70.73721237 -0.10934845 71.52129974 -0.12104065 72.32914734 -0.13308716 C76.31100597 -0.06435237 78.84699639 0.36958138 82.03895569 2.85023499 C84.54125977 5.53344727 84.54125977 5.53344727 85.16625977 9.09594727 C84.45923873 12.98456298 83.63434377 14.16814773 80.54125977 16.53344727 C77.33431331 18.13692049 73.84005455 17.71674608 70.31542969 17.7421875 C69.46485489 17.75197128 68.61428009 17.76175507 67.7379303 17.77183533 C64.91587904 17.80181289 62.0938752 17.82318046 59.27172852 17.84204102 C57.82754264 17.85189876 57.82754264 17.85189876 56.35418129 17.86195564 C51.25859674 17.89455861 46.16303321 17.91900793 41.06738281 17.93847656 C36.8466965 17.9562991 32.62667711 17.99113303 28.40625 18.04101562 C23.31400149 18.10113642 18.22237207 18.13194108 13.12978554 18.14164925 C11.18845737 18.15021856 9.24714639 18.1690729 7.30602074 18.19839287 C4.58836866 18.2372337 1.87313636 18.23835227 -0.84472656 18.23046875 C-2.04734634 18.26046967 -2.04734634 18.26046967 -3.27426147 18.29107666 C-6.23868346 18.25247715 -8.68932114 18.12309333 -11.09647179 16.278368 C-13.66581059 13.39711055 -14.44958017 11.7990892 -14.58374023 7.90844727 C-12.1456291 0.59411388 -7.0068821 -0.05816739 0 0 Z " fill="#FAFAFA" transform="translate(113.458740234375,106.466552734375)"/>
<path d="M0 0 C2.56420153 1.69252999 4.65208543 3.76292908 6.80859375 5.94140625 C7.42017838 6.54250717 8.031763 7.14360809 8.66188049 7.76292419 C9.94577332 9.03401334 11.22202848 10.31285832 12.4909668 11.59887695 C14.43208386 13.55703631 16.40760339 15.47494711 18.38867188 17.39257812 C19.63507473 18.63575686 20.87929301 19.88113049 22.12109375 21.12890625 C22.71160019 21.69694473 23.30210663 22.26498322 23.9105072 22.85023499 C26.80570717 25.84640288 28.37512375 27.93672233 28.5480957 32.18676758 C28.00563613 35.96078812 27.73097301 37.26647874 25.109375 39.8828125 C24.46935547 40.5418457 23.82933594 41.20087891 23.16992188 41.87988281 C22.45384766 42.57952148 21.73777344 43.27916016 21 44 C20.23751953 44.7847168 19.47503906 45.56943359 18.68945312 46.37792969 C16.23270928 48.90099176 13.74588325 51.39068962 11.25 53.875 C10.40050781 54.72835937 9.55101563 55.58171875 8.67578125 56.4609375 C7.85980469 57.275625 7.04382813 58.0903125 6.203125 58.9296875 C5.46739258 59.66429199 4.73166016 60.39889648 3.97363281 61.15576172 C1.18103247 63.76527471 -0.55177129 64.93359575 -4.375 65.5 C-8 65 -8 65 -10.9375 62.3125 C-13.08523749 58.86310342 -13.55352144 57.89231569 -13 54 C-11.41796875 51.7109375 -11.41796875 51.7109375 -9.1875 49.375 C-8.37796875 48.5190625 -7.5684375 47.663125 -6.734375 46.78125 C-2.18675476 42.15567056 2.3744309 37.54775579 7 33 C5.56001825 29.65736754 3.77625749 27.60607332 1.12109375 25.13671875 C0.36505859 24.41419922 -0.39097656 23.69167969 -1.16992188 22.94726562 C-2.76120951 21.44431069 -4.36017384 19.9494411 -5.96679688 18.46289062 C-12.41608927 12.2559286 -12.41608927 12.2559286 -13.140625 8.13671875 C-12.9626361 4.16657754 -11.8131528 2.732777 -9 0 C-5.73090838 -1.63454581 -3.4945562 -0.85865468 0 0 Z " fill="#FBFBFB" transform="translate(54,100)"/>
<path d="M0 0 C1.05947342 -0.01073296 1.05947342 -0.01073296 2.14035034 -0.02168274 C4.46459518 -0.03853024 6.78690041 -0.01919544 9.11108398 0.00219727 C10.73103495 0.00136828 12.35098582 -0.00109222 13.97093201 -0.00511169 C17.36125086 -0.00796683 20.75090801 0.00670448 24.14111328 0.03417969 C28.48483644 0.06829003 32.82737881 0.06223297 37.17115879 0.04351711 C40.51439748 0.03294546 43.85736171 0.04188582 47.20057487 0.05690193 C48.80213544 0.06208121 50.4037247 0.061605 52.00528145 0.05535698 C54.24373086 0.04990135 56.48049295 0.0702863 58.71875 0.09765625 C60.62806053 0.10695412 60.62806053 0.10695412 62.57594299 0.11643982 C66.35720595 0.72104968 67.52690891 1.60145295 69.79467773 4.63110352 C70.71786405 7.79631375 71.09291515 9.73639126 70.04467773 12.88110352 C68.79467773 14.63110352 68.79467773 14.63110352 65.79467773 16.63110352 C62.69619751 16.90525818 62.69619751 16.90525818 58.83227539 16.9375 C58.12785812 16.94582352 57.42344086 16.95414703 56.69767761 16.96272278 C54.36797566 16.98682669 52.03855367 16.99559526 49.70874023 17.00219727 C48.08832719 17.01116343 46.46791499 17.02028527 44.84750366 17.02955627 C41.44966622 17.04604995 38.05192735 17.05374704 34.65405273 17.05664062 C30.30362237 17.06202444 25.95412056 17.09970172 21.60395241 17.14538479 C18.25644563 17.17515286 14.90916251 17.18236412 11.56153488 17.18336678 C9.9579582 17.18756975 8.35438089 17.20000733 6.7509346 17.22088432 C4.50522189 17.24779554 2.2616617 17.24297652 0.01586914 17.23046875 C-1.26081635 17.2355394 -2.53750183 17.24061005 -3.85287476 17.24583435 C-8.0954283 16.46788675 -9.56917547 14.9772578 -12.20532227 11.63110352 C-12.83032227 8.63110352 -12.83032227 8.63110352 -12.20532227 5.63110352 C-8.44238092 0.86051077 -5.99881369 0.00452977 0 0 Z " fill="#FDDF7C" transform="translate(111.205322265625,280.368896484375)"/>
<path d="M0 0 C1.28490829 -0.01583633 2.56981659 -0.03167267 3.8936615 -0.04798889 C5.29312503 -0.04414717 6.69258572 -0.03910798 8.09204102 -0.03295898 C9.53166608 -0.03819561 10.9712877 -0.04447223 12.41090393 -0.05174255 C15.42628131 -0.06214459 18.44118674 -0.05758932 21.45654297 -0.04296875 C25.31497959 -0.02578897 29.1719259 -0.04926452 33.03019619 -0.08445835 C36.00289215 -0.10645377 38.97523275 -0.1049858 41.9479847 -0.09669304 C43.3701141 -0.0958745 44.79226985 -0.10271937 46.21432304 -0.11746407 C48.20531626 -0.13494213 50.19652431 -0.11702888 52.1875 -0.09765625 C53.31905014 -0.09669449 54.45060028 -0.09573273 55.61643982 -0.09474182 C59.62027326 0.73206893 61.12648486 2.39248903 63.65844727 5.53344727 C64.28344727 8.53344727 64.28344727 8.53344727 63.65844727 11.53344727 C61.12648486 14.6744055 59.62027326 16.3348256 55.61643982 17.16163635 C53.91911461 17.16307899 53.91911461 17.16307899 52.1875 17.16455078 C50.25540932 17.18335045 50.25540932 17.18335045 48.2842865 17.20252991 C46.88686101 17.19026252 45.48944523 17.17684263 44.09204102 17.16235352 C42.65145183 17.16318268 41.21086275 17.16564384 39.77027893 17.16966248 C36.75655516 17.17251627 33.74357634 17.15786009 30.72998047 17.13037109 C26.87048363 17.09625681 23.01231562 17.1023198 19.15275478 17.12103367 C16.18008885 17.13160969 13.20773134 17.12266121 10.23509407 17.10764885 C8.81216409 17.10247296 7.38920183 17.10294168 5.96627617 17.1091938 C3.97747496 17.11465334 1.98865767 17.09140449 0 17.06689453 C-1.13075455 17.06069595 -2.26150909 17.05449738 -3.42652893 17.04811096 C-6.97149184 16.42222801 -8.15097549 15.33268041 -10.34155273 12.53344727 C-10.87280273 10.53344727 -10.87280273 10.53344727 -10.84155273 8.53344727 C-10.85702148 7.54344727 -10.85702148 7.54344727 -10.87280273 6.53344727 C-9.37043005 0.87745598 -5.26100527 0.02883981 0 0 Z " fill="#FDDF7C" transform="translate(93.341552734375,214.466552734375)"/>
<path d="M0 0 C1.28483276 -0.01898849 2.56966553 -0.03797699 3.89343262 -0.05754089 C5.28768551 -0.05190943 6.68193317 -0.04481939 8.07617188 -0.03637695 C9.51436961 -0.04228934 10.95256243 -0.04953752 12.39074707 -0.05805969 C15.40024521 -0.06992372 18.40900301 -0.0632601 21.41845703 -0.04394531 C25.26927333 -0.02105104 29.11788415 -0.04784734 32.96848297 -0.08900738 C35.93693957 -0.1146203 38.90487072 -0.11199665 41.87339783 -0.10111427 C43.29273991 -0.09963057 44.71212285 -0.1072833 46.13136292 -0.12436485 C57.13408522 -0.23530873 57.13408522 -0.23530873 60.55078125 1.93978882 C62.84688728 4.52636548 63.53846129 6.33981275 63.60742188 9.7878418 C62.37946969 13.11053595 61.31000747 14.4651092 58.54492188 16.6628418 C55.62316895 17.17077637 55.62316895 17.17077637 52.1875 17.18041992 C50.89936401 17.19302856 49.61122803 17.20563721 48.28405762 17.21862793 C46.88142347 17.21146811 45.47879431 17.20326412 44.07617188 17.1940918 C42.63415261 17.19678735 41.19213512 17.2006703 39.75012207 17.20568848 C36.73053655 17.21158069 33.71142489 17.20303028 30.69189453 17.18432617 C26.82455985 17.16153585 22.95833552 17.17466055 19.09104156 17.19861603 C16.11411193 17.21308206 13.13744482 17.20846454 10.1605072 17.19810486 C8.73477547 17.19543975 7.30901978 17.19869981 5.88331604 17.20802307 C3.88966335 17.21819977 1.89592691 17.19993368 -0.09765625 17.18041992 C-1.231427 17.17723755 -2.36519775 17.17405518 -3.5333252 17.17077637 C-7.11803713 16.54758914 -8.26843593 15.52212474 -10.45507812 12.6628418 C-11.51757812 9.2253418 -11.51757812 9.2253418 -11.45507812 5.6628418 C-7.9418745 1.17825994 -5.64257505 0.03497027 0 0 Z " fill="#FDA85F" transform="translate(52.455078125,247.337158203125)"/>
<path d="M0 0 C1.28490829 -0.01583633 2.56981659 -0.03167267 3.8936615 -0.04798889 C5.29312503 -0.04414717 6.69258572 -0.03910798 8.09204102 -0.03295898 C9.53166608 -0.03819561 10.9712877 -0.04447223 12.41090393 -0.05174255 C15.42628131 -0.06214459 18.44118674 -0.05758932 21.45654297 -0.04296875 C25.31497959 -0.02578897 29.1719259 -0.04926452 33.03019619 -0.08445835 C36.00289215 -0.10645377 38.97523275 -0.1049858 41.9479847 -0.09669304 C43.3701141 -0.0958745 44.79226985 -0.10271937 46.21432304 -0.11746407 C48.20531626 -0.13494213 50.19652431 -0.11702888 52.1875 -0.09765625 C53.31905014 -0.09669449 54.45060028 -0.09573273 55.61643982 -0.09474182 C59.63490211 0.73508986 61.16006673 2.3404134 63.65844727 5.53344727 C63.72691056 9.43585533 63.3725078 11.59973205 60.98937988 14.71594238 C57.93935712 17.09414552 56.14464568 17.04023676 52.30102539 17.05102539 C51.0128894 17.06363403 49.72475342 17.07624268 48.39758301 17.0892334 C46.99494886 17.08207358 45.5923197 17.07386959 44.18969727 17.06469727 C42.747678 17.06739282 41.30566051 17.07127577 39.86364746 17.07629395 C36.84406194 17.08218615 33.82495028 17.07363575 30.80541992 17.05493164 C26.93808524 17.03214132 23.07186091 17.04526602 19.20456696 17.0692215 C16.22763732 17.08368752 13.25097021 17.07907 10.27403259 17.06871033 C8.84830086 17.06604522 7.42254517 17.06930528 5.99684143 17.07862854 C4.00318874 17.08880524 2.0094523 17.07053915 0.01586914 17.05102539 C-1.11790161 17.04784302 -2.25167236 17.04466064 -3.4197998 17.04138184 C-6.97318978 16.4236398 -8.14845619 15.3389285 -10.34155273 12.53344727 C-10.87280273 10.53344727 -10.87280273 10.53344727 -10.84155273 8.53344727 C-10.85702148 7.54344727 -10.85702148 7.54344727 -10.87280273 6.53344727 C-9.37043005 0.87745598 -5.26100527 0.02883981 0 0 Z " fill="#FEFEFE" transform="translate(184.341552734375,181.466552734375)"/>
<path d="M0 0 C2.4375 1.6875 2.4375 1.6875 4 4 C4.61966115 7.64050926 4.36847866 9.37051562 2.5 12.5625 C-0.67787718 15.66093025 -4.15918454 17.80924361 -8 20 C-7.11957031 20.01417969 -6.23914063 20.02835937 -5.33203125 20.04296875 C4.13978495 20.43193346 4.13978495 20.43193346 8.3125 23.1875 C10.34799275 26.57998791 10.80870757 28.11820367 10 32 C8.3414229 34.87061422 7.88683609 35.63109876 5 37 C0.33533966 37.71845278 -4.2846479 37.92981208 -9 38 C-8.31292969 38.38671875 -7.62585938 38.7734375 -6.91796875 39.171875 C-6.01691406 39.69265625 -5.11585938 40.2134375 -4.1875 40.75 C-2.84751953 41.51570313 -2.84751953 41.51570313 -1.48046875 42.296875 C1.02864619 44.01966888 2.48141203 45.37421412 4 48 C3.88067077 51.40088303 3.64141645 53.93097259 1.875 56.875 C-1.18290763 58.70974458 -3.4914562 59.54211875 -7 59 C-11.20674851 56.97550228 -15.1037944 54.56548185 -19 52 C-17.125 46.25 -17.125 46.25 -16 44 C-16.02247354 41.15260294 -16.1034877 38.32818386 -16.21875 35.484375 C-16.26551057 33.74095042 -16.30969971 31.99745531 -16.3515625 30.25390625 C-16.41928098 27.50247486 -16.49977984 24.75487207 -16.62402344 22.00537109 C-17.28914968 6.73770042 -17.28914968 6.73770042 -14.0949707 2.43212891 C-9.40415576 -0.82616746 -5.56944542 -1.96568662 0 0 Z " fill="#888088" transform="translate(345,293)"/>
<path d="M0 0 C5.19287926 1.09849369 8.95376119 2.33409592 12.25 6.6875 C13.77008623 12.97315446 12.95286096 19.79248562 12.625 26.1875 C12.51943446 28.86712941 12.42701637 31.54629867 12.35098267 34.22692871 C12.30047996 35.89047713 12.23140394 37.55359855 12.14096069 39.2154541 C11.94785345 44.2350466 12.65073879 47.24128408 15.25 51.6875 C15.25 52.3475 15.25 53.0075 15.25 53.6875 C12.8359375 55.4140625 12.8359375 55.4140625 9.625 57.3125 C8.58085937 57.94414062 7.53671875 58.57578125 6.4609375 59.2265625 C3.01304103 60.79531345 0.98628079 61.18532142 -2.75 60.6875 C-5.18826648 58.56050158 -6.41167426 57.48026192 -7.75 54.6875 C-7.875 51.0625 -7.875 51.0625 -6.75 47.6875 C-3.34459499 44.18193602 0.99091731 42.02581991 5.25 39.6875 C4.29738281 39.67332031 3.34476562 39.65914063 2.36328125 39.64453125 C-9.16741899 39.20605652 -9.16741899 39.20605652 -12.125 36.5 C-14.08620914 33.10559956 -14.5519119 31.53667713 -13.75 27.6875 C-12.0914229 24.81688578 -11.63683609 24.05640124 -8.75 22.6875 C-4.08533966 21.96904722 0.5346479 21.75768792 5.25 21.6875 C4.56292969 21.30078125 3.87585938 20.9140625 3.16796875 20.515625 C2.26691406 19.99484375 1.36585938 19.4740625 0.4375 18.9375 C-0.45582031 18.42703125 -1.34914063 17.9165625 -2.26953125 17.390625 C-4.76678403 15.67597585 -6.18193218 14.26034915 -7.75 11.6875 C-8.25 8.75 -8.25 8.75 -7.75 5.6875 C-5.39748045 2.50467943 -3.86613263 0.96653316 0 0 Z " fill="#716671" transform="translate(269.75,291.3125)"/>
<path d="M0 0 C0.01401855 1.92078369 0.01401855 1.92078369 0.02832031 3.88037109 C0.06845203 8.67042734 0.13427398 13.45985689 0.20751953 18.24951172 C0.23559538 20.3151845 0.25687591 22.38096203 0.27099609 24.44677734 C0.29261193 27.43120443 0.33935624 30.41438954 0.390625 33.3984375 C0.39185364 34.30927094 0.39308228 35.22010437 0.39434814 36.15853882 C0.54313791 42.79989674 2.15552806 48.0191605 5 54 C5.33565979 54.73399017 5.67131958 55.46798035 6.01715088 56.22421265 C7.3073716 58.55535136 8.59817783 58.90202415 11 60 C12.68889872 61.3050581 14.3603279 62.63360658 16 64 C11.34131945 66.32934028 4.65229558 65.66986305 -0.2890625 64.421875 C-6.619432 61.64760948 -11.9608821 55.99457497 -15.08300781 49.87841797 C-16.2795912 46.12236947 -16.32457914 42.53148006 -16.3359375 38.62890625 C-16.3425943 37.82895737 -16.3492511 37.02900848 -16.35610962 36.20481873 C-16.36620511 34.51799814 -16.3709276 32.83113787 -16.37060547 31.14428711 C-16.37498037 28.57403385 -16.41133493 26.00549692 -16.44921875 23.43554688 C-16.45508741 21.7916725 -16.45905647 20.14779002 -16.4609375 18.50390625 C-16.48249405 17.35989098 -16.48249405 17.35989098 -16.50448608 16.19276428 C-16.45006723 9.78821715 -14.17062949 6.22929515 -9.6875 1.625 C-6.28082125 -0.43485227 -3.91590915 -0.11935948 0 0 Z " fill="#FE8B5B" transform="translate(297,290)"/>
<path d="M0 0 C1.04647705 -0.00478363 2.0929541 -0.00956726 3.17114258 -0.01449585 C5.38006089 -0.01789298 7.58902961 -0.00870375 9.79785156 0.01220703 C13.1762721 0.03897354 16.55137014 0.01245107 19.9296875 -0.01953125 C22.07813232 -0.01622712 24.22657508 -0.00982083 26.375 0 C27.38344971 -0.01012115 28.39189941 -0.02024231 29.4309082 -0.03067017 C34.15821091 0.04821566 36.45382588 0.11346428 40.32421875 3.01806641 C42.1875 5.6640625 42.1875 5.6640625 42.8125 8.6640625 C41.93860502 12.85875842 40.61992137 14.08814353 37.1875 16.6640625 C33.58473616 17.40815781 30.0435566 17.36494392 26.375 17.328125 C24.80528442 17.33530045 24.80528442 17.33530045 23.20385742 17.34262085 C20.99493911 17.34601798 18.78597039 17.33682875 16.57714844 17.31591797 C13.1987279 17.28915146 9.82362986 17.31567393 6.4453125 17.34765625 C4.29686768 17.34435212 2.14842492 17.33794583 0 17.328125 C-1.00844971 17.33824615 -2.01689941 17.34836731 -3.0559082 17.35879517 C-7.78321091 17.27990934 -10.07882588 17.21466072 -13.94921875 14.31005859 C-15.8125 11.6640625 -15.8125 11.6640625 -16.4375 8.6640625 C-14.5798317 -0.25274533 -7.55059046 -0.07578037 0 0 Z " fill="#FDFDFD" transform="translate(147.8125,247.3359375)"/>
<path d="M0 0 C1.04647705 -0.00478363 2.0929541 -0.00956726 3.17114258 -0.01449585 C5.38006089 -0.01789298 7.58902961 -0.00870375 9.79785156 0.01220703 C13.1762721 0.03897354 16.55137014 0.01245107 19.9296875 -0.01953125 C22.07813232 -0.01622712 24.22657508 -0.00982083 26.375 0 C27.38344971 -0.01012115 28.39189941 -0.02024231 29.4309082 -0.03067017 C34.14448908 0.04798668 36.46741499 0.13763336 40.359375 2.98291016 C42.1875 5.6640625 42.1875 5.6640625 42.25 9.2265625 C41.04071866 13.13894332 40.52522654 14.32987636 37.1875 16.6640625 C33.62070252 17.28259469 30.08547673 17.24814725 26.47265625 17.23046875 C25.42476425 17.23666733 24.37687225 17.24286591 23.29722595 17.24925232 C21.08235605 17.25635235 18.86743279 17.25317334 16.65258789 17.24047852 C13.26543782 17.22662564 9.88105679 17.26066777 6.49414062 17.29882812 C4.34114516 17.29977944 2.18814623 17.29791982 0.03515625 17.29296875 C-1.48222389 17.31285606 -1.48222389 17.31285606 -3.03025818 17.33314514 C-7.76867773 17.27048115 -10.06964565 17.22063993 -13.95141602 14.31225586 C-15.8125 11.6640625 -15.8125 11.6640625 -16.4375 8.6640625 C-14.5798317 -0.25274533 -7.55059046 -0.07578037 0 0 Z " fill="#FDFDFD" transform="translate(114.8125,181.3359375)"/>
<path d="M0 0 C0.82876144 -0.00807175 1.65752289 -0.01614349 2.51139832 -0.02445984 C4.2674246 -0.03830096 6.02347779 -0.04902299 7.77954102 -0.05688477 C10.45966884 -0.07408526 13.13855903 -0.11796801 15.81835938 -0.16210938 C17.52473051 -0.17223754 19.23111214 -0.18075326 20.9375 -0.1875 C21.73662308 -0.20500809 22.53574615 -0.22251617 23.35908508 -0.24055481 C27.26511292 -0.22539828 29.23230051 -0.0266613 32.6472168 2.05004883 C35.45843912 5.09426602 35.74000397 7.13227352 35.66796875 11.23828125 C33.90155703 14.04017571 32.63747053 15.75353036 29.66796875 17.23828125 C26.88238788 17.37388497 24.12303957 17.4509934 21.3359375 17.4765625 C20.50717606 17.48463425 19.67841461 17.49270599 18.82453918 17.50102234 C17.0685129 17.51486346 15.31245971 17.52558549 13.55639648 17.53344727 C10.87626866 17.55064776 8.19737847 17.59453051 5.51757812 17.63867188 C3.81120699 17.64880004 2.10482536 17.65731576 0.3984375 17.6640625 C-0.80024712 17.69032463 -0.80024712 17.69032463 -2.02314758 17.71711731 C-5.92917542 17.70196078 -7.89636301 17.5032238 -11.3112793 15.42651367 C-14.12250162 12.38229648 -14.40406647 10.34428898 -14.33203125 6.23828125 C-10.38987813 -0.01478921 -6.92454433 0.06352634 0 0 Z " fill="#F9DB7B" transform="translate(278.33203125,139.76171875)"/>
<path d="M0 0 C3.20916732 0.58045924 4.83436488 1.46376442 7.11621094 3.77563477 C7.69651062 4.35616104 8.2768103 4.93668732 8.87469482 5.5348053 C9.48838928 6.16398361 10.10208374 6.79316193 10.734375 7.44140625 C11.37240051 8.08367661 12.01042603 8.72594696 12.66778564 9.38768005 C14.70234118 11.43901726 16.72621379 13.50054273 18.75 15.5625 C20.12821491 16.95576234 21.50711325 18.34834898 22.88671875 19.74023438 C26.26579046 23.15236865 29.63531864 26.57367707 33 30 C31.10995329 32.0388259 30.12900144 32.95595073 27.4375 33.875 C24.78125 34.78125 24.78125 34.78125 23.875 37.4375 C23.441875 38.7059375 23.441875 38.7059375 23 40 C22.03332687 41.03225145 21.03712481 42.03855727 20 43 C15.69334572 38.81671836 11.40320585 34.61744121 7.12768555 30.40234375 C5.67022419 28.97006425 4.20831213 27.54229937 2.74194336 26.11914062 C0.6377681 24.07545062 -1.44999021 22.01618391 -3.53515625 19.953125 C-4.19653091 19.31755676 -4.85790558 18.68198853 -5.5393219 18.02716064 C-6.14001999 17.42684021 -6.74071808 16.82651978 -7.35961914 16.20800781 C-7.89478653 15.68394348 -8.42995392 15.15987915 -8.9813385 14.61993408 C-10 13 -10 13 -9.76243591 10.89935303 C-8.79844166 8.49788508 -7.59296746 7.52050478 -5.5625 5.9375 C-3.08722511 3.98931914 -1.79578076 2.69367114 0 0 Z " fill="#B6B1B7" transform="translate(380,370)"/>
<path d="M0 0 C13.86 0 27.72 0 42 0 C42 11.42307692 42 11.42307692 39 15 C35.66844749 16.66577625 31.93463941 16.12007856 28.2734375 16.09765625 C26.97921371 16.09553383 26.97921371 16.09553383 25.65884399 16.09336853 C22.8975277 16.08776188 20.13629188 16.07520827 17.375 16.0625 C15.5052095 16.05748586 13.63541774 16.0529228 11.765625 16.04882812 C7.17705223 16.03779029 2.58853977 16.0205212 -2 16 C-1.34 10.72 -0.68 5.44 0 0 Z " fill="#4B3F4E" transform="translate(404,314)"/>
<path d="M0 0 C0.69371201 -0.00241196 1.38742401 -0.00482391 2.10215759 -0.00730896 C3.56205997 -0.00633343 5.02200068 0.00699051 6.48168945 0.03198242 C8.71237987 0.06636827 10.93912061 0.05261422 13.16992188 0.03320312 C14.59246472 0.04010046 16.01499738 0.04977185 17.4375 0.0625 C18.725354 0.07337646 20.01320801 0.08425293 21.34008789 0.09545898 C25.15853946 0.71043036 26.34841087 1.58626445 28.65234375 4.62890625 C29.18359375 6.62890625 29.18359375 6.62890625 29.15234375 8.62890625 C29.16265625 9.28890625 29.17296875 9.94890625 29.18359375 10.62890625 C28.39161449 13.61047522 27.066807 14.72500746 24.65234375 16.62890625 C21.32421875 17.14648438 21.32421875 17.14648438 17.40234375 17.16015625 C16.7072168 17.16398315 16.01208984 17.16781006 15.29589844 17.17175293 C13.83006334 17.17446805 12.36417947 17.1671346 10.8984375 17.15039062 C8.659054 17.12897044 6.42287788 17.15020068 4.18359375 17.17578125 C2.75650336 17.1731379 1.32941496 17.16801275 -0.09765625 17.16015625 C-1.391875 17.15564453 -2.68609375 17.15113281 -4.01953125 17.14648438 C-7.88660505 16.54509086 -9.0486364 15.73787135 -11.34765625 12.62890625 C-12.41015625 9.19140625 -12.41015625 9.19140625 -12.34765625 5.62890625 C-8.63549277 0.75721803 -6.01485058 -0.00338356 0 0 Z " fill="#FDA85F" transform="translate(53.34765625,280.37109375)"/>
<path d="M0 0 C0.69371201 -0.00241196 1.38742401 -0.00482391 2.10215759 -0.00730896 C3.56205997 -0.00633343 5.02200068 0.00699051 6.48168945 0.03198242 C8.71237987 0.06636827 10.93912061 0.05261422 13.16992188 0.03320312 C14.59246472 0.04010046 16.01499738 0.04977185 17.4375 0.0625 C18.725354 0.07337646 20.01320801 0.08425293 21.34008789 0.09545898 C25.15921908 0.71053982 26.34625464 1.5876402 28.65234375 4.62890625 C29.21875 6.62890625 29.21875 6.62890625 29.21484375 8.62890625 C29.23675781 9.28890625 29.25867188 9.94890625 29.28125 10.62890625 C28.284809 13.79771242 26.38731114 14.83316489 23.65234375 16.62890625 C20.30249023 17.14648438 20.30249023 17.14648438 16.5234375 17.16015625 C15.85192154 17.16398315 15.18040558 17.16781006 14.48854065 17.17175293 C13.0757598 17.17446316 11.66292801 17.16716413 10.25024414 17.15039062 C8.09212284 17.12892891 5.93731668 17.15023383 3.77929688 17.17578125 C2.40233644 17.17313847 1.02537805 17.1680145 -0.3515625 17.16015625 C-1.59752197 17.15564453 -2.84348145 17.15113281 -4.12719727 17.14648438 C-7.91983364 16.53694839 -9.07574998 15.67127916 -11.34765625 12.62890625 C-12.41015625 9.19140625 -12.41015625 9.19140625 -12.34765625 5.62890625 C-8.63549277 0.75721803 -6.01485058 -0.00338356 0 0 Z " fill="#FDA85F" transform="translate(53.34765625,181.37109375)"/>
<path d="M0 0 C3.76905546 0.69227549 6.03895757 2.25884863 9.0625 4.5625 C9.743125 3.881875 10.42375 3.20125 11.125 2.5 C14.0625 0.5625 14.0625 0.5625 17.625 0.5625 C21.36988498 1.65192109 22.88693497 2.34266376 25.0625 5.5625 C25.75 8.3125 25.75 8.3125 25.0625 11.5625 C23.03235059 14.54801384 20.62508014 17.03000886 18.0625 19.5625 C17.47597656 20.18253906 16.88945312 20.80257813 16.28515625 21.44140625 C15.43244141 22.27478516 15.43244141 22.27478516 14.5625 23.125 C14.0571875 23.62128906 13.551875 24.11757813 13.03125 24.62890625 C9.74426806 26.18761396 7.50608675 25.49897862 4.0625 24.5625 C1.82531512 22.78019031 0.0801365 21.20531415 -1.8125 19.125 C-2.53953125 18.36993164 -2.53953125 18.36993164 -3.28125 17.59960938 C-6.09210736 14.64349822 -7.76805437 12.83334221 -8.3125 8.75 C-7.9375 5.5625 -7.9375 5.5625 -5.8125 2.6875 C-2.9375 0.5625 -2.9375 0.5625 0 0 Z " fill="#716773" transform="translate(296.9375,255.4375)"/>
<path d="M0 0 C0.33 0.66 0.66 1.32 1 2 C1.66 2 2.32 2 3 2 C5.125 3.875 5.125 3.875 7 6 C7 6.66 7 7.32 7 8 C7.66 8 8.32 8 9 8 C10.33895632 9.66215268 11.67130142 11.32963607 13 13 C13.78375 13.598125 14.5675 14.19625 15.375 14.8125 C18.94725534 17.78937945 21.29273039 21.22241449 24 25 C20.37 28.63 16.74 32.26 13 36 C5.61923994 32.30961997 -1.21650783 25.57444299 -4.44140625 17.859375 C-5.70488809 13.65365921 -5.73045897 10.57718476 -3.87109375 6.5625 C-2.64503036 4.32694282 -1.36641422 2.15210239 0 0 Z " fill="#C8C5C9" transform="translate(405,405)"/>
<path d="M0 0 C0.95068359 -0.02900391 1.90136719 -0.05800781 2.88085938 -0.08789062 C7.26428583 -0.12771211 9.94001019 -0.1224374 13.7890625 2.1171875 C16.44904719 5.19313688 16.75829717 7.2770613 16.6875 11.3125 C14.92108828 14.11439446 13.65700178 15.82774911 10.6875 17.3125 C7.09042849 17.63261789 3.48456201 17.63682332 -0.125 17.6875 C-1.12337891 17.72488281 -2.12175781 17.76226562 -3.15039062 17.80078125 C-10.5194819 17.88915143 -10.5194819 17.88915143 -14.4765625 15.01171875 C-16.88068505 11.47714709 -16.9985108 9.5047882 -16.3125 5.3125 C-11.6677566 -0.57084165 -6.98026929 0.07012997 0 0 Z " fill="#F9F8F9" transform="translate(231.3125,106.6875)"/>
<path d="M0 0 C0.95068359 -0.020625 1.90136719 -0.04125 2.88085938 -0.0625 C11.72984091 -0.1119702 11.72984091 -0.1119702 15.6875 3.25 C17.21596661 6.30693322 16.91992445 8.87984547 16.6875 12.25 C14.92734869 15.4350357 14.18859084 16.08296972 10.6875 17.25 C7.23398216 17.52925501 3.77607161 17.52739623 0.3125 17.5625 C-0.63367188 17.59150391 -1.57984375 17.62050781 -2.5546875 17.65039062 C-6.92387308 17.69027785 -9.57432242 17.68006058 -13.41015625 15.4453125 C-16.07488936 12.37019954 -16.38333726 10.28772375 -16.3125 6.25 C-11.92361063 -0.71168659 -7.55741557 0.04049519 0 0 Z " fill="#F9DA7B" transform="translate(346.3125,139.75)"/>
<path d="M0 0 C1.051875 -0.00515625 2.10375 -0.0103125 3.1875 -0.015625 C4.280625 -0.00015625 5.37375 0.0153125 6.5 0.03125 C8.1396875 0.00804687 8.1396875 0.00804687 9.8125 -0.015625 C10.864375 -0.01046875 11.91625 -0.0053125 13 0 C14.43859375 0.00676758 14.43859375 0.00676758 15.90625 0.01367188 C19.21304647 0.67353714 20.40749364 1.94377786 22.5 4.53125 C23.06640625 6.53125 23.06640625 6.53125 23.0625 8.53125 C23.08441406 9.19125 23.10632813 9.85125 23.12890625 10.53125 C22.06133459 13.9262605 20.60476992 14.79623151 17.5 16.53125 C13.63560097 17.11643366 9.83903136 17.08944562 5.9375 17.03125 C4.37612305 17.05445313 4.37612305 17.05445313 2.78320312 17.078125 C1.78095703 17.07296875 0.77871094 17.0678125 -0.25390625 17.0625 C-1.16470947 17.05798828 -2.0755127 17.05347656 -3.01391602 17.04882812 C-6.23949111 16.37729526 -7.44612204 15.05059522 -9.5 12.53125 C-10.03125 10.53125 -10.03125 10.53125 -10 8.53125 C-10.01546875 7.54125 -10.01546875 7.54125 -10.03125 6.53125 C-8.65240655 1.34030994 -4.94094259 0.02324368 0 0 Z " fill="#FDDF7C" transform="translate(183.5,214.46875)"/>
<path d="M0 0 C3.06398451 -0.13530844 6.12197126 -0.2342407 9.1875 -0.3125 C10.05181641 -0.35439453 10.91613281 -0.39628906 11.80664062 -0.43945312 C16.35470923 -0.52658088 18.34325258 -0.49819341 22.07421875 2.33203125 C24 5 24 5 24.625 8 C23.75828572 12.16022855 22.38212544 13.43439786 19 16 C15.70476357 16.60280506 12.52319519 16.47418545 9.1875 16.3125 C8.30384766 16.28994141 7.42019531 16.26738281 6.50976562 16.24414062 C4.3391109 16.18547428 2.1693331 16.09579979 0 16 C0 10.72 0 5.44 0 0 Z " fill="#706672" transform="translate(331,314)"/>
<path d="M0 0 C1.93359375 -0.01933594 1.93359375 -0.01933594 3.90625 -0.0390625 C8.30267295 0.77332 9.77901433 2.14419192 12.5 5.625 C13.125 8.625 13.125 8.625 12.5 11.625 C9.76422275 15.13651749 8.31158495 16.48434857 3.87109375 17.25390625 C2.57300781 17.23199219 1.27492188 17.21007812 -0.0625 17.1875 C-1.36316406 17.18878906 -2.66382813 17.19007813 -4.00390625 17.19140625 C-7.96691911 16.54935389 -9.15403114 15.8178064 -11.5 12.625 C-12.5625 9.1875 -12.5625 9.1875 -12.5 5.625 C-8.77668358 0.71536779 -6.05851349 -0.06058513 0 0 Z " fill="#FBA75F" transform="translate(53.5,214.375)"/>
<path d="M0 0 C1.30066406 -0.00128906 2.60132812 -0.00257812 3.94140625 -0.00390625 C7.89504003 0.6366266 9.08411184 1.39004047 11.4375 4.5625 C12.61340974 8.24701718 12.77231338 9.84504275 11.125 13.375 C9.4375 15.5625 9.4375 15.5625 7.4375 16.5625 C4.98056092 16.76603342 2.58507347 16.88590647 0.125 16.9375 C-1.84919922 17.01097656 -1.84919922 17.01097656 -3.86328125 17.0859375 C-8.4078602 16.44288198 -9.79424556 15.14494692 -12.5625 11.5625 C-13.1875 8.5625 -13.1875 8.5625 -12.5625 5.5625 C-8.74278942 0.65969568 -6.1304265 -0.1034928 0 0 Z " fill="#FEFEFE" transform="translate(78.5625,24.4375)"/>
<path d="M0 0 C0.7115625 -0.01546875 1.423125 -0.0309375 2.15625 -0.046875 C5.60314984 -0.02115187 7.64752229 0.24568064 10.46875 2.28125 C12.08267327 4.61979188 12.54379543 5.69709278 12.5 8.5 C12.5103125 9.16 12.520625 9.82 12.53125 10.5 C11.7219503 13.54677535 10.551771 14.65481116 8 16.5 C5.16503573 16.92819773 2.82340346 17.10597632 0 17.0625 C-1.06734375 17.09827148 -1.06734375 17.09827148 -2.15625 17.13476562 C-5.96133813 17.12411706 -7.65874191 16.81965947 -10.46875 14.1875 C-12.47740425 10.66210683 -12.58135747 8.49683257 -12 4.5 C-8.78749047 -0.08110416 -5.21928102 -0.11346263 0 0 Z " fill="#FE8C5C" transform="translate(37,24.5)"/>
<path d="M0 0 C0.12117188 0.58007812 0.24234375 1.16015625 0.3671875 1.7578125 C0.53476562 2.53898437 0.70234375 3.32015625 0.875 4.125 C1.11863281 5.27355469 1.11863281 5.27355469 1.3671875 6.4453125 C2.08860985 9.35772123 3.02198334 12.16457354 4 15 C2.13517671 16.18286526 0.25763024 17.34568657 -1.625 18.5 C-2.66914063 19.1496875 -3.71328125 19.799375 -4.7890625 20.46875 C-8.25050981 22.11946453 -10.22121186 22.51408478 -14 22 C-16.43826648 19.87300158 -17.66167426 18.79276192 -19 16 C-19.125 12.375 -19.125 12.375 -18 9 C-15.9375 6.875 -15.9375 6.875 -13 5 C-12.36191406 4.55398438 -11.72382813 4.10796875 -11.06640625 3.6484375 C-4.61073683 -0.72042763 -4.61073683 -0.72042763 0 0 Z " fill="#878088" transform="translate(281,330)"/>
<path d="M0 0 C5.08029049 1.07467683 9.12465735 2.34596067 12.25 6.6875 C12.73748496 12.17983059 12.13261948 17.26293357 11.25 22.6875 C6.72168092 23.11563199 4.38375558 21.90191826 0.625 19.4375 C-0.31601562 18.83421875 -1.25703125 18.2309375 -2.2265625 17.609375 C-5.68647461 14.97427166 -7.51408533 13.07349869 -8.25 8.75 C-7.43984282 3.78778727 -4.86811566 1.21702891 0 0 Z " fill="#888088" transform="translate(269.75,291.3125)"/>
</svg>
